{
  "asset": {
    "version": "2.0",
    "generator": "MatForge Displaced Cube Generator"
  },
  "extensionsUsed": [
    "KHR_materials_displacement"
  ],
  "scene": 0,
  "scenes": [
    {
      "nodes": [0]
    }
  ],
  "nodes": [
    {
      "mesh": 0,
      "name": "DisplacedCube"
    }
  ],
  "meshes": [
    {
      "name": "Cube",
      "primitives": [
        {
          "attributes": {
            "POSITION": 0,
            "NORMAL": 1,
            "TEXCOORD_0": 2
          },
          "indices": 3,
          "material": 0
        },
        {
          "attributes": {
            "POSITION": 0,
            "NORMAL": 1,
            "TEXCOORD_0": 2
          },
          "indices": 4,
          "material": 1
        },
        {
          "attributes": {
            "POSITION": 0,
            "NORMAL": 1,
            "TEXCOORD_0": 2
          },
          "indices": 5,
          "material": 2
        },
        {
          "attributes": {
            "POSITION": 0,
            "NORMAL": 1,
            "TEXCOORD_0": 2
          },
          "indices": 6,
          "material": 3
        },
        {
          "attributes": {
            "POSITION": 0,
            "NORMAL": 1,
            "TEXCOORD_0": 2
          },
          "indices": 7,
          "material": 4
        },
        {
          "attributes": {
            "POSITION": 0,
            "NORMAL": 1,
            "TEXCOORD_0": 2
          },
          "indices": 8,
          "material": 5
        }
      ]
    }
  ],
  "materials": [
    {
      "name": "TopFaceMaterial",
      "pbrMetallicRoughness": {
        "baseColorFactor": [0.8, 0.8, 0.8, 1.0],
        "metallicFactor": 0.0,
        "roughnessFactor": 0.5
      },
      "extensions": {
        "KHR_materials_displacement": {
          "displacementGeometryTexture": {
            "index": 0,
            "texCoord": 0
          },
          "displacementGeometryFactor": 0.3,
          "displacementGeometryOffset": 0.0
        }
      }
    },
    {
      "name": "BottomFaceMaterial",
      "pbrMetallicRoughness": {
        "baseColorFactor": [0.6, 0.5, 0.4, 1.0],
        "metallicFactor": 0.0,
        "roughnessFactor": 0.6
      },
      "normalTexture": {
        "index": 2,
        "texCoord": 0
      },
      "extensions": {
        "KHR_materials_displacement": {
          "displacementGeometryTexture": {
            "index": 1,
            "texCoord": 0
          },
          "displacementGeometryFactor": 0.1,
          "displacementGeometryOffset": 0.0
        }
      }
    },
    {
      "name": "FrontFaceMaterial",
      "pbrMetallicRoughness": {
        "baseColorFactor": [0.7, 0.6, 0.8, 1.0],
        "metallicFactor": 0.0,
        "roughnessFactor": 0.7
      },
      "normalTexture": {
        "index": 4,
        "texCoord": 0
      },
      "extensions": {
        "KHR_materials_displacement": {
          "displacementGeometryTexture": {
            "index": 3,
            "texCoord": 0
          },
          "displacementGeometryFactor": 0.1,
          "displacementGeometryOffset": 0.0
        }
      }
    },
    {
      "name": "BackFaceMaterial",
      "pbrMetallicRoughness": {
        "baseColorFactor": [0.3, 0.5, 0.8, 1.0],
        "metallicFactor": 0.0,
        "roughnessFactor": 0.5
      },
      "normalTexture": {
        "index": 6,
        "texCoord": 0
      },
      "extensions": {
        "KHR_materials_displacement": {
          "displacementGeometryTexture": {
            "index": 5,
            "texCoord": 0
          },
          "displacementGeometryFactor": 0.1,
          "displacementGeometryOffset": 0.0
        }
      }
    },
    {
      "name": "RightFaceMaterial",
      "pbrMetallicRoughness": {
        "baseColorFactor": [0.2, 0.6, 0.3, 1.0],
        "metallicFactor": 0.0,
        "roughnessFactor": 0.5
      },
      "normalTexture": {
        "index": 8,
        "texCoord": 0
      },
      "extensions": {
        "KHR_materials_displacement": {
          "displacementGeometryTexture": {
            "index": 7,
            "texCoord": 0
          },
          "displacementGeometryFactor": 0.1,
          "displacementGeometryOffset": 0.0
        }
      }
    },
    {
      "name": "LeftFaceMaterial",
      "pbrMetallicRoughness": {
        "baseColorTexture": {
          "index": 10,
          "texCoord": 0
        },
        "metallicFactor": 0.0,
        "metallicRoughnessTexture": {
          "index": 11,
          "texCoord": 0
        }
      },
      "normalTexture": {
        "index": 12,
        "texCoord": 0
      },
      "extensions": {
        "KHR_materials_displacement": {
          "displacementGeometryTexture": {
            "index": 9,
            "texCoord": 0
          },
          "displacementGeometryFactor": 0.1,
          "displacementGeometryOffset": 0.0
        }
      }
    }
  ],
  "textures": [
    { "source": 0 },
    { "source": 1 },
    { "source": 2 },
    { "source": 3 },
    { "source": 4 },
    { "source": 5 },
    { "source": 6 },
    { "source": 7 },
    { "source": 8 },
    { "source": 9 },
    { "source": 10 },
    { "source": 11 },
    { "source": 12 }
  ],
  "images": [
    { "uri": "displacement_512.png", "mimeType": "image/png" },
    { "uri": "121_chipped_planks_height_512.png", "mimeType": "image/png" },
    { "uri": "121_chipped_planks_normal_512.jpg", "mimeType": "image/jpeg" },
    { "uri": "120_quilted_fabric_height_512.png", "mimeType": "image/png" },
    { "uri": "120_quilted_fabric_normal_512.jpg", "mimeType": "image/jpeg" },
    { "uri": "108_hex_grid_random_4_height_512.png", "mimeType": "image/png" },
    { "uri": "108_hex_grid_random_4_normal_512.jpg", "mimeType": "image/jpeg" },
    { "uri": "114_organic_scale_height_512.png", "mimeType": "image/png" },
    { "uri": "114_organic_scale_normal_512.jpg", "mimeType": "image/jpeg" },
    { "uri": "patterned_paving_02_disp_512.png", "mimeType": "image/png" },
    { "uri": "patterned_paving_02_diff.jpg", "mimeType": "image/jpeg" },
    { "uri": "patterned_paving_02_rough.png", "mimeType": "image/png" },
    { "uri": "patterned_paving_02_nor_gl.png", "mimeType": "image/png" }
  ],
  "accessors": [
    {
      "bufferView": 0,
      "componentType": 5126,
      "count": 24,
      "type": "VEC3",
      "min": [-1, -1, -1],
      "max": [1, 1, 1]
    },
    {
      "bufferView": 1,
      "componentType": 5126,
      "count": 24,
      "type": "VEC3"
    },
    {
      "bufferView": 2,
      "componentType": 5126,
      "count": 24,
      "type": "VEC2"
    },
    {
      "bufferView": 3,
      "byteOffset": 0,
      "componentType": 5123,
      "count": 6,
      "type": "SCALAR"
    },
    {
      "bufferView": 3,
      "byteOffset": 12,
      "componentType": 5123,
      "count": 6,
      "type": "SCALAR"
    },
    {
      "bufferView": 3,
      "byteOffset": 24,
      "componentType": 5123,
      "count": 6,
      "type": "SCALAR"
    },
    {
      "bufferView": 3,
      "byteOffset": 36,
      "componentType": 5123,
      "count": 6,
      "type": "SCALAR"
    },
    {
      "bufferView": 3,
      "byteOffset": 48,
      "componentType": 5123,
      "count": 6,
      "type": "SCALAR"
    },
    {
      "bufferView": 3,
      "byteOffset": 60,
      "componentType": 5123,
      "count": 6,
      "type": "SCALAR"
    }
  ],
  "bufferViews": [
    { "buffer": 0, "byteOffset": 0, "byteLength": 288, "target": 34962 },
    { "buffer": 0, "byteOffset": 288, "byteLength": 288, "target": 34962 },
    { "buffer": 0, "byteOffset": 576, "byteLength": 192, "target": 34962 },
    { "buffer": 0, "byteOffset": 768, "byteLength": 72, "target": 34963 }
  ],
  "buffers": [
    {
      "byteLength": 840,
      "uri": "displaced_cube.bin"
    }
  ]
}
