{
  "accessors": [
    {
      "bufferView": 0,
      "componentType": 5126,
      "count": 62570,
      "min": [
        -0.8216659426689148,
        0.0015843699220567942,
        -0.460637092590332
      ],
      "max": [
        0.9809443354606628,
        1.0221298933029177,
        1.4283748865127563
      ],
      "type": "VEC3"
    },
    {
      "bufferView": 1,
      "componentType": 5126,
      "count": 62570,
      "type": "VEC3"
    },
    {
      "bufferView": 2,
      "componentType": 5126,
      "count": 62570,
      "type": "VEC2"
    },
    {
      "bufferView": 3,
      "componentType": 5123,
      "count": 131337,
      "type": "SCALAR"
    },
    {
      "bufferView": 4,
      "componentType": 5126,
      "count": 76809,
      "min": [
        -7.0467000007629395,
        -3.151299953460694,
        -9.939900398254396
      ],
      "max": [
        7.0467000007629395,
        3.151299953460694,
        0.0
      ],
      "type": "VEC3"
    },
    {
      "bufferView": 5,
      "componentType": 5126,
      "count": 76809,
      "type": "VEC3"
    },
    {
      "bufferView": 6,
      "componentType": 5126,
      "count": 76809,
      "type": "VEC2"
    },
    {
      "bufferView": 7,
      "componentType": 5125,
      "count": 273648,
      "type": "SCALAR"
    },
    {
      "bufferView": 12,
      "componentType": 5126,
      "count": 2292,
      "min": [
        -0.59375,
        -0.03222699835896492,
        -0.17285199463367462
      ],
      "max": [
        0.59375,
        0.08837900310754776,
        0.04931600019335747
      ],
      "type": "VEC3"
    },
    {
      "bufferView": 12,
      "byteOffset": 27504,
      "componentType": 5126,
      "count": 2292,
      "min": [
        -0.9997110366821288,
        -0.999829113483429,
        -0.9970270991325378
      ],
      "max": [
        0.9997110366821288,
        1.0,
        0.9867570400238036
      ],
      "type": "VEC3"
    },
    {
      "bufferView": 11,
      "componentType": 5126,
      "count": 2292,
      "min": [
        0.01498399954289198,
        0.026366999372839928
      ],
      "max": [
        0.9863280057907104,
        0.9854580163955688
      ],
      "type": "VEC2"
    },
    {
      "bufferView": 10,
      "componentType": 5125,
      "count": 10428,
      "type": "SCALAR"
    },
    {
      "bufferView": 12,
      "byteOffset": 55008,
      "componentType": 5126,
      "count": 4268,
      "min": [
        -0.1007390022277832,
        -0.14339999854564667,
        0.46218299865722656
      ],
      "max": [
        0.10246799886226654,
        0.10784699767827988,
        0.8238000273704529
      ],
      "type": "VEC3"
    },
    {
      "bufferView": 12,
      "byteOffset": 106224,
      "componentType": 5126,
      "count": 4268,
      "min": [
        -0.9999433755874634,
        -0.9995988011360168,
        -0.9995076656341552
      ],
      "max": [
        0.9989441633224488,
        0.9993405342102052,
        0.9993318915367126
      ],
      "type": "VEC3"
    },
    {
      "bufferView": 11,
      "byteOffset": 18336,
      "componentType": 5126,
      "count": 4268,
      "min": [
        0.006302000023424625,
        0.012206999585032465
      ],
      "max": [
        0.9931640028953552,
        0.9896010160446168
      ],
      "type": "VEC2"
    },
    {
      "bufferView": 10,
      "byteOffset": 41712,
      "componentType": 5125,
      "count": 22704,
      "type": "SCALAR"
    },
    {
      "bufferView": 12,
      "byteOffset": 157440,
      "componentType": 5126,
      "count": 1589,
      "min": [
        -0.5092769861221313,
        -0.15136699378490448,
        -0.02587899938225746
      ],
      "max": [
        0.5083010196685791,
        0.13476599752902985,
        0.6181640028953552
      ],
      "type": "VEC3"
    },
    {
      "bufferView": 12,
      "byteOffset": 176508,
      "componentType": 5126,
      "count": 1589,
      "min": [
        -1.0,
        -1.0,
        -1.0
      ],
      "max": [
        0.9998403191566468,
        1.0,
        1.0
      ],
      "type": "VEC3"
    },
    {
      "bufferView": 11,
      "byteOffset": 52480,
      "componentType": 5126,
      "count": 1589,
      "min": [
        0.15295399725437164,
        0.010254000313580036
      ],
      "max": [
        0.9916989803314208,
        0.7207030057907104
      ],
      "type": "VEC2"
    },
    {
      "bufferView": 10,
      "byteOffset": 132528,
      "componentType": 5125,
      "count": 5523,
      "type": "SCALAR"
    },
    {
      "bufferView": 12,
      "byteOffset": 195576,
      "componentType": 5126,
      "count": 1517,
      "min": [
        -0.21337899565696716,
        -0.1372070014476776,
        -0.969237983226776
      ],
      "max": [
        0.2104489952325821,
        0.16308599710464478,
        0.09668000042438508
      ],
      "type": "VEC3"
    },
    {
      "bufferView": 12,
      "byteOffset": 213780,
      "componentType": 5126,
      "count": 1517,
      "min": [
        -0.9999989867210388,
        -0.9989403486251832,
        -1.0
      ],
      "max": [
        0.9995412826538086,
        0.9989582896232604,
        0.9999508261680604
      ],
      "type": "VEC3"
    },
    {
      "bufferView": 11,
      "byteOffset": 65192,
      "componentType": 5126,
      "count": 1517,
      "min": [
        0.004149999935179949,
        0.010742000304162502
      ],
      "max": [
        0.9887700080871582,
        0.995299994945526
      ],
      "type": "VEC2"
    },
    {
      "bufferView": 10,
      "byteOffset": 154620,
      "componentType": 5125,
      "count": 5832,
      "type": "SCALAR"
    },
    {
      "bufferView": 12,
      "byteOffset": 231984,
      "componentType": 5126,
      "count": 3720,
      "min": [
        -0.5375980138778687,
        -0.15625,
        -0.18212899565696716
      ],
      "max": [
        0.5371090173721313,
        0.18505899608135223,
        0.6127930283546448
      ],
      "type": "VEC3"
    },
    {
      "bufferView": 12,
      "byteOffset": 276624,
      "componentType": 5126,
      "count": 3720,
      "min": [
        -0.999952793121338,
        -1.0,
        -0.999926745891571
      ],
      "max": [
        0.9999194741249084,
        0.9999904036521912,
        0.9980512261390686
      ],
      "type": "VEC3"
    },
    {
      "bufferView": 11,
      "byteOffset": 77328,
      "componentType": 5126,
      "count": 3720,
      "min": [
        0.003386999946087599,
        0.007813000120222569
      ],
      "max": [
        1.0068360567092896,
        0.9947360157966614
      ],
      "type": "VEC2"
    },
    {
      "bufferView": 10,
      "byteOffset": 177948,
      "componentType": 5125,
      "count": 16722,
      "type": "SCALAR"
    },
    {
      "bufferView": 12,
      "byteOffset": 321264,
      "componentType": 5126,
      "count": 884,
      "min": [
        -0.2309570014476776,
        -0.1943359971046448,
        -1.0043950080871582
      ],
      "max": [
        0.2221679985523224,
        0.13525399565696716,
        -0.8354489803314209
      ],
      "type": "VEC3"
    },
    {
      "bufferView": 12,
      "byteOffset": 331872,
      "componentType": 5126,
      "count": 884,
      "min": [
        -0.999618411064148,
        -0.982595920562744,
        -1.0
      ],
      "max": [
        0.999618411064148,
        0.9947388172149658,
        0.9985722899436952
      ],
      "type": "VEC3"
    },
    {
      "bufferView": 11,
      "byteOffset": 107088,
      "componentType": 5126,
      "count": 884,
      "min": [
        0.02592499926686287,
        0.017578000202775
      ],
      "max": [
        0.9794920086860656,
        0.9781489968299866
      ],
      "type": "VEC2"
    },
    {
      "bufferView": 10,
      "byteOffset": 244836,
      "componentType": 5125,
      "count": 3276,
      "type": "SCALAR"
    },
    {
      "bufferView": 12,
      "byteOffset": 342480,
      "componentType": 5126,
      "count": 6314,
      "min": [
        -0.09423799812793732,
        -0.12206999957561492,
        0.6220700144767761
      ],
      "max": [
        0.09619099646806716,
        0.09960900247097015,
        0.8378909826278687
      ],
      "type": "VEC3"
    },
    {
      "bufferView": 12,
      "byteOffset": 418248,
      "componentType": 5126,
      "count": 6314,
      "min": [
        -0.9999969005584716,
        -0.9994046688079834,
        -0.9998874068260192
      ],
      "max": [
        0.9999969005584716,
        0.9994046688079834,
        0.9998874068260192
      ],
      "type": "VEC3"
    },
    {
      "bufferView": 11,
      "byteOffset": 114160,
      "componentType": 5126,
      "count": 6314,
      "min": [
        0.005661000031977892,
        0.015137000009417534
      ],
      "max": [
        0.9941409826278688,
        0.9844359755516052
      ],
      "type": "VEC2"
    },
    {
      "bufferView": 10,
      "byteOffset": 257940,
      "componentType": 5125,
      "count": 23361,
      "type": "SCALAR"
    },
    {
      "bufferView": 12,
      "byteOffset": 494016,
      "componentType": 5126,
      "count": 2141,
      "min": [
        -0.04670000076293945,
        -0.1160999983549118,
        0.6069999933242798
      ],
      "max": [
        0.05000099912285805,
        -0.04619999974966049,
        0.717199981212616
      ],
      "type": "VEC3"
    },
    {
      "bufferView": 12,
      "byteOffset": 519708,
      "componentType": 5126,
      "count": 2141,
      "min": [
        -0.9988821744918824,
        -1.0,
        -0.9998350739479064
      ],
      "max": [
        0.9996220469474792,
        0.9930247068405152,
        0.9999678134918212
      ],
      "type": "VEC3"
    },
    {
      "bufferView": 11,
      "byteOffset": 164672,
      "componentType": 5126,
      "count": 2141,
      "min": [
        0.0045010000467300415,
        0.011230000294744968
      ],
      "max": [
        1.364258050918579,
        0.9951019883155824
      ],
      "type": "VEC2"
    },
    {
      "bufferView": 10,
      "byteOffset": 351384,
      "componentType": 5125,
      "count": 6978,
      "type": "SCALAR"
    },
    {
      "bufferView": 22,
      "componentType": 5123,
      "count": 121440,
      "min": [
        0
      ],
      "max": [
        29161
      ],
      "type": "SCALAR"
    },
    {
      "bufferView": 23,
      "componentType": 5126,
      "count": 29162,
      "min": [
        -0.028035584837198257,
        -3.725290298461914e-9,
        -0.02803558111190796
      ],
      "max": [
        0.028035586699843407,
        0.15154190361499786,
        0.02803558111190796
      ],
      "type": "VEC3"
    },
    {
      "bufferView": 24,
      "componentType": 5126,
      "count": 29162,
      "min": [
        0.0048828125,
        0.005859375
      ],
      "max": [
        0.9949387311935424,
        0.9951171875
      ],
      "type": "VEC2"
    },
    {
      "bufferView": 25,
      "componentType": 5126,
      "count": 29162,
      "min": [
        -1.0,
        -1.0,
        -1.0
      ],
      "max": [
        1.0000001192092896,
        1.0,
        1.0000001192092896
      ],
      "type": "VEC3"
    },
    {
      "bufferView": 26,
      "componentType": 5126,
      "count": 29162,
      "min": [
        -1.0,
        -0.9999998807907104,
        -1.0,
        1.0
      ],
      "max": [
        1.0,
        1.0,
        1.0,
        1.0
      ],
      "type": "VEC4"
    },
    {
      "bufferView": 27,
      "componentType": 5123,
      "count": 121440,
      "min": [
        0
      ],
      "max": [
        29161
      ],
      "type": "SCALAR"
    },
    {
      "bufferView": 28,
      "componentType": 5126,
      "count": 29162,
      "min": [
        -0.028035584837198257,
        -3.725290298461914e-9,
        -0.02803558111190796
      ],
      "max": [
        0.028035586699843407,
        0.15154190361499786,
        0.02803558111190796
      ],
      "type": "VEC3"
    },
    {
      "bufferView": 29,
      "componentType": 5126,
      "count": 29162,
      "min": [
        0.0048828125,
        0.005859375
      ],
      "max": [
        0.9949387311935424,
        0.9951171875
      ],
      "type": "VEC2"
    },
    {
      "bufferView": 30,
      "componentType": 5126,
      "count": 29162,
      "min": [
        -1.0,
        -1.0,
        -1.0
      ],
      "max": [
        1.0000001192092896,
        1.0,
        1.0000001192092896
      ],
      "type": "VEC3"
    },
    {
      "bufferView": 31,
      "componentType": 5126,
      "count": 29162,
      "min": [
        -1.0,
        -0.9999998807907104,
        -1.0,
        1.0
      ],
      "max": [
        1.0,
        1.0,
        1.0,
        1.0
      ],
      "type": "VEC4"
    },
    {
      "bufferView": 32,
      "componentType": 5123,
      "count": 103104,
      "min": [
        0
      ],
      "max": [
        20989
      ],
      "type": "SCALAR"
    },
    {
      "bufferView": 33,
      "componentType": 5126,
      "count": 20990,
      "min": [
        -0.026661990210413933,
        0.0,
        -0.02666199207305908
      ],
      "max": [
        0.02666199207305908,
        0.1361335813999176,
        0.02666199207305908
      ],
      "type": "VEC3"
    },
    {
      "bufferView": 34,
      "componentType": 5126,
      "count": 20990,
      "min": [
        0.0,
        0.0012862086296081543
      ],
      "max": [
        0.9995408058166506,
        1.0
      ],
      "type": "VEC2"
    },
    {
      "bufferView": 35,
      "componentType": 5126,
      "count": 20990,
      "min": [
        -1.0000001192092896,
        -1.0,
        -1.0
      ],
      "max": [
        1.0,
        1.0,
        1.0
      ],
      "type": "VEC3"
    },
    {
      "bufferView": 36,
      "componentType": 5126,
      "count": 20990,
      "min": [
        -1.0,
        -0.9997828602790833,
        -1.0,
        -1.0
      ],
      "max": [
        1.0,
        0.9980680346488952,
        1.0,
        1.0
      ],
      "type": "VEC4"
    },
    {
      "bufferView": 37,
      "componentType": 5123,
      "count": 103104,
      "min": [
        0
      ],
      "max": [
        20989
      ],
      "type": "SCALAR"
    },
    {
      "bufferView": 38,
      "componentType": 5126,
      "count": 20990,
      "min": [
        -0.026661990210413933,
        0.0,
        -0.02666199207305908
      ],
      "max": [
        0.02666199207305908,
        0.1361335813999176,
        0.02666199207305908
      ],
      "type": "VEC3"
    },
    {
      "bufferView": 39,
      "componentType": 5126,
      "count": 20990,
      "min": [
        0.0,
        0.0012862086296081543
      ],
      "max": [
        0.9995408058166506,
        1.0
      ],
      "type": "VEC2"
    },
    {
      "bufferView": 40,
      "componentType": 5126,
      "count": 20990,
      "min": [
        -1.0000001192092896,
        -1.0,
        -1.0
      ],
      "max": [
        1.0,
        1.0,
        1.0
      ],
      "type": "VEC3"
    },
    {
      "bufferView": 41,
      "componentType": 5126,
      "count": 20990,
      "min": [
        -1.0,
        -0.9997828602790833,
        -1.0,
        -1.0
      ],
      "max": [
        1.0,
        0.9980680346488952,
        1.0,
        1.0
      ],
      "type": "VEC4"
    },
    {
      "bufferView": 42,
      "componentType": 5125,
      "count": 277248,
      "min": [
        0
      ],
      "max": [
        115199
      ],
      "type": "SCALAR"
    },
    {
      "bufferView": 43,
      "componentType": 5126,
      "count": 115200,
      "min": [
        -0.3527080714702606,
        -5.5669453047357826e-8,
        -0.3527080714702606
      ],
      "max": [
        0.3527080714702606,
        0.01851509138941765,
        0.3527080714702606
      ],
      "type": "VEC3"
    },
    {
      "bufferView": 44,
      "componentType": 5126,
      "count": 115200,
      "min": [
        0.0,
        0.07839912176132202
      ],
      "max": [
        0.9977031350135804,
        1.0
      ],
      "type": "VEC2"
    },
    {
      "bufferView": 45,
      "componentType": 5126,
      "count": 115200,
      "min": [
        -1.0,
        -1.0,
        -1.0000001192092896
      ],
      "max": [
        1.0,
        1.0,
        1.0
      ],
      "type": "VEC3"
    },
    {
      "bufferView": 46,
      "componentType": 5126,
      "count": 115200,
      "min": [
        -1.0,
        -1.0,
        -1.0,
        -1.0
      ],
      "max": [
        1.0,
        1.0,
        1.0,
        1.0
      ],
      "type": "VEC4"
    },
    {
      "bufferView": 47,
      "componentType": 5123,
      "count": 6624,
      "min": [
        0
      ],
      "max": [
        1171
      ],
      "type": "SCALAR"
    },
    {
      "bufferView": 48,
      "componentType": 5126,
      "count": 1172,
      "min": [
        0.02036779560148716,
        0.0592837817966938,
        -0.0421321913599968
      ],
      "max": [
        0.04213219881057739,
        0.08137139678001404,
        -0.020367786288261417
      ],
      "type": "VEC3"
    },
    {
      "bufferView": 49,
      "componentType": 5126,
      "count": 1172,
      "min": [
        0.0,
        0.6789825558662415
      ],
      "max": [
        0.472792774438858,
        1.0
      ],
      "type": "VEC2"
    },
    {
      "bufferView": 50,
      "componentType": 5126,
      "count": 1172,
      "min": [
        -1.0,
        -1.0,
        -1.0
      ],
      "max": [
        0.9999999403953552,
        1.0,
        1.0
      ],
      "type": "VEC3"
    },
    {
      "bufferView": 51,
      "componentType": 5126,
      "count": 1172,
      "min": [
        -0.9999974966049192,
        -0.66996169090271,
        -0.9997485876083374,
        1.0
      ],
      "max": [
        0.9974802732467652,
        0.610942542552948,
        0.9997218251228333,
        1.0
      ],
      "type": "VEC4"
    },
    {
      "bufferView": 52,
      "componentType": 5123,
      "count": 141696,
      "min": [
        0
      ],
      "max": [
        25956
      ],
      "type": "SCALAR"
    },
    {
      "bufferView": 53,
      "componentType": 5126,
      "count": 25957,
      "min": [
        -0.021040331572294235,
        0.0,
        -0.021040333434939384
      ],
      "max": [
        0.021040337160229683,
        0.04976364225149155,
        0.021040335297584537
      ],
      "type": "VEC3"
    },
    {
      "bufferView": 54,
      "componentType": 5126,
      "count": 25957,
      "min": [
        0.0,
        0.00261002779006958
      ],
      "max": [
        0.999800741672516,
        1.0
      ],
      "type": "VEC2"
    },
    {
      "bufferView": 55,
      "componentType": 5126,
      "count": 25957,
      "min": [
        -0.9999906420707704,
        -1.0,
        -0.9999905824661256
      ],
      "max": [
        0.9999906420707704,
        1.0000001192092896,
        0.9999905824661256
      ],
      "type": "VEC3"
    },
    {
      "bufferView": 56,
      "componentType": 5126,
      "count": 25957,
      "min": [
        -0.9999991059303284,
        -0.9993954300880432,
        -0.9999988079071044,
        1.0
      ],
      "max": [
        1.0,
        0.9994150400161744,
        1.0,
        1.0
      ],
      "type": "VEC4"
    },
    {
      "bufferView": 57,
      "componentType": 5123,
      "count": 6624,
      "min": [
        0
      ],
      "max": [
        1171
      ],
      "type": "SCALAR"
    },
    {
      "bufferView": 58,
      "componentType": 5126,
      "count": 1172,
      "min": [
        0.02036779560148716,
        0.0592837817966938,
        -0.0421321913599968
      ],
      "max": [
        0.04213219881057739,
        0.08137139678001404,
        -0.020367786288261417
      ],
      "type": "VEC3"
    },
    {
      "bufferView": 59,
      "componentType": 5126,
      "count": 1172,
      "min": [
        0.0,
        0.6789825558662415
      ],
      "max": [
        0.472792774438858,
        1.0
      ],
      "type": "VEC2"
    },
    {
      "bufferView": 60,
      "componentType": 5126,
      "count": 1172,
      "min": [
        -1.0,
        -1.0,
        -1.0
      ],
      "max": [
        0.9999999403953552,
        1.0,
        1.0
      ],
      "type": "VEC3"
    },
    {
      "bufferView": 61,
      "componentType": 5126,
      "count": 1172,
      "min": [
        -0.9999974966049192,
        -0.66996169090271,
        -0.9997485876083374,
        1.0
      ],
      "max": [
        0.9974802732467652,
        0.610942542552948,
        0.9997218251228333,
        1.0
      ],
      "type": "VEC4"
    },
    {
      "bufferView": 62,
      "componentType": 5123,
      "count": 141696,
      "min": [
        0
      ],
      "max": [
        25956
      ],
      "type": "SCALAR"
    },
    {
      "bufferView": 63,
      "componentType": 5126,
      "count": 25957,
      "min": [
        -0.021040331572294235,
        0.0,
        -0.021040333434939384
      ],
      "max": [
        0.021040337160229683,
        0.04976364225149155,
        0.021040335297584537
      ],
      "type": "VEC3"
    },
    {
      "bufferView": 64,
      "componentType": 5126,
      "count": 25957,
      "min": [
        0.0,
        0.00261002779006958
      ],
      "max": [
        0.999800741672516,
        1.0
      ],
      "type": "VEC2"
    },
    {
      "bufferView": 65,
      "componentType": 5126,
      "count": 25957,
      "min": [
        -0.9999906420707704,
        -1.0,
        -0.9999905824661256
      ],
      "max": [
        0.9999906420707704,
        1.0000001192092896,
        0.9999905824661256
      ],
      "type": "VEC3"
    },
    {
      "bufferView": 66,
      "componentType": 5126,
      "count": 25957,
      "min": [
        -0.9999991059303284,
        -0.9993954300880432,
        -0.9999988079071044,
        1.0
      ],
      "max": [
        1.0,
        0.9994150400161744,
        1.0,
        1.0
      ],
      "type": "VEC4"
    },
    {
      "bufferView": 67,
      "componentType": 5123,
      "count": 91584,
      "min": [
        0
      ],
      "max": [
        24837
      ],
      "type": "SCALAR"
    },
    {
      "bufferView": 68,
      "componentType": 5126,
      "count": 24838,
      "min": [
        -0.0268431156873703,
        -3.725290298461914e-9,
        -0.0268431156873703
      ],
      "max": [
        0.0268431156873703,
        0.09708680957555772,
        0.0268431156873703
      ],
      "type": "VEC3"
    },
    {
      "bufferView": 69,
      "componentType": 5126,
      "count": 24838,
      "min": [
        0.00390625,
        0.013671875
      ],
      "max": [
        0.99609375,
        0.9951836466789244
      ],
      "type": "VEC2"
    },
    {
      "bufferView": 70,
      "componentType": 5126,
      "count": 24838,
      "min": [
        -1.0,
        -1.0000001192092896,
        -1.0
      ],
      "max": [
        1.0000001192092896,
        1.0,
        1.0
      ],
      "type": "VEC3"
    },
    {
      "bufferView": 71,
      "componentType": 5126,
      "count": 24838,
      "min": [
        -1.0,
        -0.9999194741249084,
        -1.0,
        -1.0
      ],
      "max": [
        1.0,
        0.9999258518218994,
        1.0,
        1.0
      ],
      "type": "VEC4"
    },
    {
      "bufferView": 72,
      "componentType": 5123,
      "count": 91584,
      "min": [
        0
      ],
      "max": [
        24837
      ],
      "type": "SCALAR"
    },
    {
      "bufferView": 73,
      "componentType": 5126,
      "count": 24838,
      "min": [
        -0.0268431156873703,
        -3.725290298461914e-9,
        -0.0268431156873703
      ],
      "max": [
        0.0268431156873703,
        0.09708680957555772,
        0.0268431156873703
      ],
      "type": "VEC3"
    },
    {
      "bufferView": 74,
      "componentType": 5126,
      "count": 24838,
      "min": [
        0.00390625,
        0.013671875
      ],
      "max": [
        0.99609375,
        0.9951836466789244
      ],
      "type": "VEC2"
    },
    {
      "bufferView": 75,
      "componentType": 5126,
      "count": 24838,
      "min": [
        -1.0,
        -1.0000001192092896,
        -1.0
      ],
      "max": [
        1.0000001192092896,
        1.0,
        1.0
      ],
      "type": "VEC3"
    },
    {
      "bufferView": 76,
      "componentType": 5126,
      "count": 24838,
      "min": [
        -1.0,
        -0.9999194741249084,
        -1.0,
        -1.0
      ],
      "max": [
        1.0,
        0.9999258518218994,
        1.0,
        1.0
      ],
      "type": "VEC4"
    },
    {
      "bufferView": 77,
      "componentType": 5123,
      "count": 33552,
      "min": [
        0
      ],
      "max": [
        6434
      ],
      "type": "SCALAR"
    },
    {
      "bufferView": 78,
      "componentType": 5126,
      "count": 6435,
      "min": [
        -0.024992674589157104,
        -0.00039299391210079193,
        -0.032059311866760254
      ],
      "max": [
        0.024992674589157104,
        0.09972551465034483,
        0.028097912669181824
      ],
      "type": "VEC3"
    },
    {
      "bufferView": 79,
      "componentType": 5126,
      "count": 6435,
      "min": [
        0.0,
        0.08319002389907837
      ],
      "max": [
        0.998420000076294,
        1.0
      ],
      "type": "VEC2"
    },
    {
      "bufferView": 80,
      "componentType": 5126,
      "count": 6435,
      "min": [
        -1.0,
        -1.0,
        -1.0
      ],
      "max": [
        1.0,
        1.0,
        0.9999759793281556
      ],
      "type": "VEC3"
    },
    {
      "bufferView": 81,
      "componentType": 5126,
      "count": 6435,
      "min": [
        -1.0,
        -0.9999878406524656,
        -1.0,
        -1.0
      ],
      "max": [
        1.0,
        0.9999068975448608,
        1.0,
        1.0
      ],
      "type": "VEC4"
    },
    {
      "bufferView": 82,
      "componentType": 5123,
      "count": 33552,
      "min": [
        0
      ],
      "max": [
        6434
      ],
      "type": "SCALAR"
    },
    {
      "bufferView": 83,
      "componentType": 5126,
      "count": 6435,
      "min": [
        -0.024992674589157104,
        -0.00039299391210079193,
        -0.032059311866760254
      ],
      "max": [
        0.024992674589157104,
        0.09972551465034483,
        0.028097912669181824
      ],
      "type": "VEC3"
    },
    {
      "bufferView": 84,
      "componentType": 5126,
      "count": 6435,
      "min": [
        0.0,
        0.08319002389907837
      ],
      "max": [
        0.998420000076294,
        1.0
      ],
      "type": "VEC2"
    },
    {
      "bufferView": 85,
      "componentType": 5126,
      "count": 6435,
      "min": [
        -1.0,
        -1.0,
        -1.0
      ],
      "max": [
        1.0,
        1.0,
        0.9999759793281556
      ],
      "type": "VEC3"
    },
    {
      "bufferView": 86,
      "componentType": 5126,
      "count": 6435,
      "min": [
        -1.0,
        -0.9999878406524656,
        -1.0,
        -1.0
      ],
      "max": [
        1.0,
        0.9999068975448608,
        1.0,
        1.0
      ],
      "type": "VEC4"
    },
    {
      "bufferView": 87,
      "componentType": 5123,
      "count": 224304,
      "min": [
        0
      ],
      "max": [
        42359
      ],
      "type": "SCALAR"
    },
    {
      "bufferView": 88,
      "componentType": 5126,
      "count": 42360,
      "min": [
        -0.024297118186950684,
        -0.00039617158472537994,
        -0.024283722043037415
      ],
      "max": [
        0.024297118186950684,
        0.12363776564598083,
        0.024310514330863953
      ],
      "type": "VEC3"
    },
    {
      "bufferView": 89,
      "componentType": 5126,
      "count": 42360,
      "min": [
        0.0048828125,
        0.015226483345031738
      ],
      "max": [
        0.9945392608642578,
        0.9951171875
      ],
      "type": "VEC2"
    },
    {
      "bufferView": 90,
      "componentType": 5126,
      "count": 42360,
      "min": [
        -0.9999974370002744,
        -1.0,
        -1.0
      ],
      "max": [
        0.9999994635581968,
        1.0,
        1.0
      ],
      "type": "VEC3"
    },
    {
      "bufferView": 91,
      "componentType": 5126,
      "count": 42360,
      "min": [
        -1.0,
        -1.0,
        -1.0,
        -1.0
      ],
      "max": [
        1.0,
        0.999580979347229,
        0.9999994635581968,
        1.0
      ],
      "type": "VEC4"
    },
    {
      "bufferView": 92,
      "componentType": 5123,
      "count": 224304,
      "min": [
        0
      ],
      "max": [
        42359
      ],
      "type": "SCALAR"
    },
    {
      "bufferView": 93,
      "componentType": 5126,
      "count": 42360,
      "min": [
        -0.024297118186950684,
        -0.00039617158472537994,
        -0.024283722043037415
      ],
      "max": [
        0.024297118186950684,
        0.12363776564598083,
        0.024310514330863953
      ],
      "type": "VEC3"
    },
    {
      "bufferView": 94,
      "componentType": 5126,
      "count": 42360,
      "min": [
        0.0048828125,
        0.015226483345031738
      ],
      "max": [
        0.9945392608642578,
        0.9951171875
      ],
      "type": "VEC2"
    },
    {
      "bufferView": 95,
      "componentType": 5126,
      "count": 42360,
      "min": [
        -0.9999974370002744,
        -1.0,
        -1.0
      ],
      "max": [
        0.9999994635581968,
        1.0,
        1.0
      ],
      "type": "VEC3"
    },
    {
      "bufferView": 96,
      "componentType": 5126,
      "count": 42360,
      "min": [
        -1.0,
        -1.0,
        -1.0,
        -1.0
      ],
      "max": [
        1.0,
        0.999580979347229,
        0.9999994635581968,
        1.0
      ],
      "type": "VEC4"
    }
  ],
  "asset": {
    "generator": "Khronos glTF Blender I/O v1.5.17, with hand-edits for newer glTF extensions.",
    "copyright": "The dragon model is copyright 1996 Stanford University.  Cloth backdrop CC0 by Adobe Inc.",
    "version": "2.0"
  },
  "bufferViews": [
    {
      "buffer": 0,
      "byteLength": 750840,
      "target": 34962
    },
    {
      "buffer": 0,
      "byteLength": 750840,
      "byteOffset": 750840,
      "target": 34962
    },
    {
      "buffer": 0,
      "byteLength": 500560,
      "byteOffset": 1501680,
      "target": 34962
    },
    {
      "buffer": 0,
      "byteLength": 262674,
      "byteOffset": 2002240,
      "target": 34963
    },
    {
      "buffer": 0,
      "byteLength": 921708,
      "byteOffset": 2264916,
      "target": 34962
    },
    {
      "buffer": 0,
      "byteLength": 921708,
      "byteOffset": 3186624,
      "target": 34962
    },
    {
      "buffer": 0,
      "byteLength": 614472,
      "byteOffset": 4108332,
      "target": 34962
    },
    {
      "buffer": 0,
      "byteLength": 1094592,
      "byteOffset": 4722804,
      "target": 34963
    },
    {
      "buffer": 0,
      "byteLength": 2509,
      "byteOffset": 5817396
    },
    {
      "buffer": 0,
      "byteLength": 578150,
      "byteOffset": 5819908
    },
    {
      "buffer": 1,
      "byteLength": 379296,
      "target": 34963,
      "name": "floatBufferViews"
    },
    {
      "buffer": 1,
      "byteLength": 181800,
      "byteStride": 8,
      "byteOffset": 379296,
      "target": 34962,
      "name": "floatBufferViews"
    },
    {
      "buffer": 1,
      "byteLength": 545400,
      "byteStride": 12,
      "byteOffset": 561096,
      "target": 34962,
      "name": "floatBufferViews"
    },
    {
      "buffer": 1,
      "byteLength": 49340,
      "byteOffset": 1106496,
      "name": "Material__61_baseColor.png"
    },
    {
      "buffer": 1,
      "byteLength": 365166,
      "byteOffset": 1155836,
      "name": "Material__62_baseColor.png"
    },
    {
      "buffer": 1,
      "byteLength": 268262,
      "byteOffset": 1521002,
      "name": "Material__64_baseColor.png"
    },
    {
      "buffer": 1,
      "byteLength": 211647,
      "byteOffset": 1789264,
      "name": "Material__64_emissive.png"
    },
    {
      "buffer": 1,
      "byteLength": 58706,
      "byteOffset": 2000911,
      "name": "Material__65_baseColor.png"
    },
    {
      "buffer": 1,
      "byteLength": 50858,
      "byteOffset": 2059617,
      "name": "Material__65_emissive.png"
    },
    {
      "buffer": 1,
      "byteLength": 184514,
      "byteOffset": 2110475,
      "name": "Material__73_baseColor.png"
    },
    {
      "buffer": 1,
      "byteLength": 163966,
      "byteOffset": 2294989,
      "name": "Material__74_baseColor.png"
    },
    {
      "buffer": 1,
      "byteLength": 88289,
      "byteOffset": 2458955,
      "name": "Material__75_baseColor.png"
    },
    {
      "buffer": 2,
      "byteLength": 242880,
      "target": 34963
    },
    {
      "buffer": 2,
      "byteLength": 349944,
      "byteStride": 12,
      "byteOffset": 242880,
      "target": 34962
    },
    {
      "buffer": 2,
      "byteLength": 233296,
      "byteStride": 8,
      "byteOffset": 592824,
      "target": 34962
    },
    {
      "buffer": 2,
      "byteLength": 349944,
      "byteStride": 12,
      "byteOffset": 826120,
      "target": 34962
    },
    {
      "buffer": 2,
      "byteLength": 466592,
      "byteStride": 16,
      "byteOffset": 1176064,
      "target": 34962
    },
    {
      "buffer": 2,
      "byteLength": 242880,
      "byteOffset": 1642656,
      "target": 34963
    },
    {
      "buffer": 2,
      "byteLength": 349944,
      "byteStride": 12,
      "byteOffset": 1885536,
      "target": 34962
    },
    {
      "buffer": 2,
      "byteLength": 233296,
      "byteStride": 8,
      "byteOffset": 2235480,
      "target": 34962
    },
    {
      "buffer": 2,
      "byteLength": 349944,
      "byteStride": 12,
      "byteOffset": 2468776,
      "target": 34962
    },
    {
      "buffer": 2,
      "byteLength": 466592,
      "byteStride": 16,
      "byteOffset": 2818720,
      "target": 34962
    },
    {
      "buffer": 2,
      "byteLength": 206208,
      "byteOffset": 3285312,
      "target": 34963
    },
    {
      "buffer": 2,
      "byteLength": 251880,
      "byteStride": 12,
      "byteOffset": 3491520,
      "target": 34962
    },
    {
      "buffer": 2,
      "byteLength": 167920,
      "byteStride": 8,
      "byteOffset": 3743400,
      "target": 34962
    },
    {
      "buffer": 2,
      "byteLength": 251880,
      "byteStride": 12,
      "byteOffset": 3911320,
      "target": 34962
    },
    {
      "buffer": 2,
      "byteLength": 335840,
      "byteStride": 16,
      "byteOffset": 4163200,
      "target": 34962
    },
    {
      "buffer": 2,
      "byteLength": 206208,
      "byteOffset": 4499040,
      "target": 34963
    },
    {
      "buffer": 2,
      "byteLength": 251880,
      "byteStride": 12,
      "byteOffset": 4705248,
      "target": 34962
    },
    {
      "buffer": 2,
      "byteLength": 167920,
      "byteStride": 8,
      "byteOffset": 4957128,
      "target": 34962
    },
    {
      "buffer": 2,
      "byteLength": 251880,
      "byteStride": 12,
      "byteOffset": 5125048,
      "target": 34962
    },
    {
      "buffer": 2,
      "byteLength": 335840,
      "byteStride": 16,
      "byteOffset": 5376928,
      "target": 34962
    },
    {
      "buffer": 2,
      "byteLength": 1108992,
      "byteOffset": 5712768,
      "target": 34963
    },
    {
      "buffer": 2,
      "byteLength": 1382400,
      "byteStride": 12,
      "byteOffset": 6821760,
      "target": 34962
    },
    {
      "buffer": 2,
      "byteLength": 921600,
      "byteStride": 8,
      "byteOffset": 8204160,
      "target": 34962
    },
    {
      "buffer": 2,
      "byteLength": 1382400,
      "byteStride": 12,
      "byteOffset": 9125760,
      "target": 34962
    },
    {
      "buffer": 2,
      "byteLength": 1843200,
      "byteStride": 16,
      "byteOffset": 10508160,
      "target": 34962
    },
    {
      "buffer": 2,
      "byteLength": 13248,
      "byteOffset": 12351360,
      "target": 34963
    },
    {
      "buffer": 2,
      "byteLength": 14064,
      "byteStride": 12,
      "byteOffset": 12364608,
      "target": 34962
    },
    {
      "buffer": 2,
      "byteLength": 9376,
      "byteStride": 8,
      "byteOffset": 12378672,
      "target": 34962
    },
    {
      "buffer": 2,
      "byteLength": 14064,
      "byteStride": 12,
      "byteOffset": 12388048,
      "target": 34962
    },
    {
      "buffer": 2,
      "byteLength": 18752,
      "byteStride": 16,
      "byteOffset": 12402112,
      "target": 34962
    },
    {
      "buffer": 2,
      "byteLength": 283392,
      "byteOffset": 12420864,
      "target": 34963
    },
    {
      "buffer": 2,
      "byteLength": 311484,
      "byteStride": 12,
      "byteOffset": 12704256,
      "target": 34962
    },
    {
      "buffer": 2,
      "byteLength": 207656,
      "byteStride": 8,
      "byteOffset": 13015740,
      "target": 34962
    },
    {
      "buffer": 2,
      "byteLength": 311484,
      "byteStride": 12,
      "byteOffset": 13223396,
      "target": 34962
    },
    {
      "buffer": 2,
      "byteLength": 415312,
      "byteStride": 16,
      "byteOffset": 13534880,
      "target": 34962
    },
    {
      "buffer": 2,
      "byteLength": 13248,
      "byteOffset": 13950192,
      "target": 34963
    },
    {
      "buffer": 2,
      "byteLength": 14064,
      "byteStride": 12,
      "byteOffset": 13963440,
      "target": 34962
    },
    {
      "buffer": 2,
      "byteLength": 9376,
      "byteStride": 8,
      "byteOffset": 13977504,
      "target": 34962
    },
    {
      "buffer": 2,
      "byteLength": 14064,
      "byteStride": 12,
      "byteOffset": 13986880,
      "target": 34962
    },
    {
      "buffer": 2,
      "byteLength": 18752,
      "byteStride": 16,
      "byteOffset": 14000944,
      "target": 34962
    },
    {
      "buffer": 2,
      "byteLength": 283392,
      "byteOffset": 14019696,
      "target": 34963
    },
    {
      "buffer": 2,
      "byteLength": 311484,
      "byteStride": 12,
      "byteOffset": 14303088,
      "target": 34962
    },
    {
      "buffer": 2,
      "byteLength": 207656,
      "byteStride": 8,
      "byteOffset": 14614572,
      "target": 34962
    },
    {
      "buffer": 2,
      "byteLength": 311484,
      "byteStride": 12,
      "byteOffset": 14822228,
      "target": 34962
    },
    {
      "buffer": 2,
      "byteLength": 415312,
      "byteStride": 16,
      "byteOffset": 15133712,
      "target": 34962
    },
    {
      "buffer": 2,
      "byteLength": 183168,
      "byteOffset": 15549024,
      "target": 34963
    },
    {
      "buffer": 2,
      "byteLength": 298056,
      "byteStride": 12,
      "byteOffset": 15732192,
      "target": 34962
    },
    {
      "buffer": 2,
      "byteLength": 198704,
      "byteStride": 8,
      "byteOffset": 16030248,
      "target": 34962
    },
    {
      "buffer": 2,
      "byteLength": 298056,
      "byteStride": 12,
      "byteOffset": 16228952,
      "target": 34962
    },
    {
      "buffer": 2,
      "byteLength": 397408,
      "byteStride": 16,
      "byteOffset": 16527008,
      "target": 34962
    },
    {
      "buffer": 2,
      "byteLength": 183168,
      "byteOffset": 16924416,
      "target": 34963
    },
    {
      "buffer": 2,
      "byteLength": 298056,
      "byteStride": 12,
      "byteOffset": 17107584,
      "target": 34962
    },
    {
      "buffer": 2,
      "byteLength": 198704,
      "byteStride": 8,
      "byteOffset": 17405640,
      "target": 34962
    },
    {
      "buffer": 2,
      "byteLength": 298056,
      "byteStride": 12,
      "byteOffset": 17604344,
      "target": 34962
    },
    {
      "buffer": 2,
      "byteLength": 397408,
      "byteStride": 16,
      "byteOffset": 17902400,
      "target": 34962
    },
    {
      "buffer": 2,
      "byteLength": 67104,
      "byteOffset": 18299808,
      "target": 34963
    },
    {
      "buffer": 2,
      "byteLength": 77220,
      "byteStride": 12,
      "byteOffset": 18366912,
      "target": 34962
    },
    {
      "buffer": 2,
      "byteLength": 51480,
      "byteStride": 8,
      "byteOffset": 18444132,
      "target": 34962
    },
    {
      "buffer": 2,
      "byteLength": 77220,
      "byteStride": 12,
      "byteOffset": 18495612,
      "target": 34962
    },
    {
      "buffer": 2,
      "byteLength": 102960,
      "byteStride": 16,
      "byteOffset": 18572832,
      "target": 34962
    },
    {
      "buffer": 2,
      "byteLength": 67104,
      "byteOffset": 18675792,
      "target": 34963
    },
    {
      "buffer": 2,
      "byteLength": 77220,
      "byteStride": 12,
      "byteOffset": 18742896,
      "target": 34962
    },
    {
      "buffer": 2,
      "byteLength": 51480,
      "byteStride": 8,
      "byteOffset": 18820116,
      "target": 34962
    },
    {
      "buffer": 2,
      "byteLength": 77220,
      "byteStride": 12,
      "byteOffset": 18871596,
      "target": 34962
    },
    {
      "buffer": 2,
      "byteLength": 102960,
      "byteStride": 16,
      "byteOffset": 18948816,
      "target": 34962
    },
    {
      "buffer": 2,
      "byteLength": 448608,
      "byteOffset": 19051776,
      "target": 34963
    },
    {
      "buffer": 2,
      "byteLength": 508320,
      "byteStride": 12,
      "byteOffset": 19500384,
      "target": 34962
    },
    {
      "buffer": 2,
      "byteLength": 338880,
      "byteStride": 8,
      "byteOffset": 20008704,
      "target": 34962
    },
    {
      "buffer": 2,
      "byteLength": 508320,
      "byteStride": 12,
      "byteOffset": 20347584,
      "target": 34962
    },
    {
      "buffer": 2,
      "byteLength": 677760,
      "byteStride": 16,
      "byteOffset": 20855904,
      "target": 34962
    },
    {
      "buffer": 2,
      "byteLength": 448608,
      "byteOffset": 21533664,
      "target": 34963
    },
    {
      "buffer": 2,
      "byteLength": 508320,
      "byteStride": 12,
      "byteOffset": 21982272,
      "target": 34962
    },
    {
      "buffer": 2,
      "byteLength": 338880,
      "byteStride": 8,
      "byteOffset": 22490592,
      "target": 34962
    },
    {
      "buffer": 2,
      "byteLength": 508320,
      "byteStride": 12,
      "byteOffset": 22829472,
      "target": 34962
    },
    {
      "buffer": 2,
      "byteLength": 677760,
      "byteStride": 16,
      "byteOffset": 23337792,
      "target": 34962
    },
    {
      "buffer": 2,
      "byteLength": 361127,
      "byteOffset": 24015552
    },
    {
      "buffer": 2,
      "byteLength": 673915,
      "byteOffset": 24376680
    },
    {
      "buffer": 2,
      "byteLength": 622771,
      "byteOffset": 25050596
    },
    {
      "buffer": 2,
      "byteLength": 403990,
      "byteOffset": 25673368
    },
    {
      "buffer": 2,
      "byteLength": 850400,
      "byteOffset": 26077360
    },
    {
      "buffer": 2,
      "byteLength": 630950,
      "byteOffset": 26927760
    },
    {
      "buffer": 2,
      "byteLength": 366216,
      "byteOffset": 27558712
    },
    {
      "buffer": 2,
      "byteLength": 764089,
      "byteOffset": 27924928
    },
    {
      "buffer": 2,
      "byteLength": 782417,
      "byteOffset": 28689020
    },
    {
      "buffer": 2,
      "byteLength": 395138,
      "byteOffset": 29471440
    },
    {
      "buffer": 2,
      "byteLength": 961725,
      "byteOffset": 29866580
    },
    {
      "buffer": 2,
      "byteLength": 822486,
      "byteOffset": 30828308
    },
    {
      "buffer": 2,
      "byteLength": 295346,
      "byteOffset": 31650796
    },
    {
      "buffer": 2,
      "byteLength": 777060,
      "byteOffset": 31946144
    },
    {
      "buffer": 2,
      "byteLength": 741172,
      "byteOffset": 32723204
    },
    {
      "buffer": 2,
      "byteLength": 309191,
      "byteOffset": 33464376
    },
    {
      "buffer": 2,
      "byteLength": 662916,
      "byteOffset": 33773568
    },
    {
      "buffer": 2,
      "byteLength": 709227,
      "byteOffset": 34436484
    },
    {
      "buffer": 2,
      "byteLength": 529405,
      "byteOffset": 35145712
    },
    {
      "buffer": 2,
      "byteLength": 727372,
      "byteOffset": 35675120
    },
    {
      "buffer": 2,
      "byteLength": 582751,
      "byteOffset": 36402492
    },
    {
      "buffer": 2,
      "byteLength": 750313,
      "byteOffset": 36985244
    },
    {
      "buffer": 2,
      "byteLength": 792174,
      "byteOffset": 37735560
    },
    {
      "buffer": 2,
      "byteLength": 303807,
      "byteOffset": 38527736
    },
    {
      "buffer": 2,
      "byteLength": 315179,
      "byteOffset": 38831544
    },
    {
      "buffer": 2,
      "byteLength": 394527,
      "byteOffset": 39146724
    },
    {
      "buffer": 2,
      "byteLength": 491396,
      "byteOffset": 39541252
    },
    {
      "buffer": 2,
      "byteLength": 1371413,
      "byteOffset": 40032648
    },
    {
      "buffer": 2,
      "byteLength": 334252,
      "byteOffset": 41404064
    },
    {
      "buffer": 2,
      "byteLength": 244999,
      "byteOffset": 41738316
    },
    {
      "buffer": 2,
      "byteLength": 215780,
      "byteOffset": 41983316
    },
    {
      "buffer": 2,
      "byteLength": 350946,
      "byteOffset": 42199096
    },
    {
      "buffer": 2,
      "byteLength": 395645,
      "byteOffset": 42550044
    }
  ],
  "materials": [
    {
      "name": "Cloth Backdrop",
      "pbrMetallicRoughness": {
        "metallicFactor": 0.0,
        "roughnessFactor": 0.4934999942779541,
        "baseColorTexture": {
          "index": 0
        }
      }
    },
    {
      "name": "Dragon with Attenuation",
      "pbrMetallicRoughness": {
        "metallicFactor": 0.0,
        "roughnessFactor": 0.0
      },
      "extensions": {
        "KHR_materials_transmission": {
          "transmissionFactor": 1
        },
        "KHR_materials_volume": {
          "attenuationColor": [
            0.921,
            0.64,
            0.064
          ],
          "attenuationDistance": 0.155,
          "thicknessFactor": 2.27,
          "thicknessTexture": {
            "index": 1,
            "texCoord": 0
          }
        }
      }
    },
    {
      "name": "Dragon with Surface Coloring Only",
      "pbrMetallicRoughness": {
        "baseColorFactor": [
          0.921,
          0.64,
          0.064,
          1.0
        ],
        "metallicFactor": 0.0,
        "roughnessFactor": 0.0
      },
      "extensions": {
        "KHR_materials_transmission": {
          "transmissionFactor": 1
        },
        "KHR_materials_volume": {
          "thicknessFactor": 2.27,
          "thicknessTexture": {
            "index": 1,
            "texCoord": 0
          }
        }
      }
    },
    {
      "name": "Material__61",
      "doubleSided": true,
      "emissiveTexture": {
        "index": 2
      },
      "pbrMetallicRoughness": {
        "metallicFactor": 0.0,
        "baseColorTexture": {
          "index": 2
        }
      }
    },
    {
      "name": "Material__62",
      "doubleSided": true,
      "pbrMetallicRoughness": {
        "metallicFactor": 0.0,
        "baseColorTexture": {
          "index": 3
        }
      }
    },
    {
      "name": "Material__64",
      "alphaMode": "BLEND",
      "doubleSided": true,
      "emissiveTexture": {
        "index": 5
      },
      "pbrMetallicRoughness": {
        "metallicFactor": 0.0,
        "baseColorTexture": {
          "index": 4
        }
      }
    },
    {
      "name": "Material__65",
      "alphaMode": "BLEND",
      "doubleSided": true,
      "emissiveTexture": {
        "index": 7
      },
      "pbrMetallicRoughness": {
        "metallicFactor": 0.0,
        "baseColorTexture": {
          "index": 6
        }
      }
    },
    {
      "name": "Material__72",
      "doubleSided": true,
      "pbrMetallicRoughness": {
        "baseColorFactor": [
          0.588,
          0.588,
          0.588,
          1.0
        ],
        "metallicFactor": 0.0
      }
    },
    {
      "name": "Material__73",
      "doubleSided": true,
      "emissiveTexture": {
        "index": 8
      },
      "pbrMetallicRoughness": {
        "metallicFactor": 0.0,
        "baseColorTexture": {
          "index": 8
        }
      }
    },
    {
      "name": "Material__74",
      "doubleSided": true,
      "pbrMetallicRoughness": {
        "metallicFactor": 0.0,
        "baseColorTexture": {
          "index": 9
        }
      }
    },
    {
      "name": "Material__75",
      "doubleSided": true,
      "emissiveTexture": {
        "index": 10
      },
      "pbrMetallicRoughness": {
        "metallicFactor": 0.0,
        "baseColorTexture": {
          "index": 10
        }
      }
    },
    {
      "name": "King_Black",
      "normalTexture": {
        "index": 18
      },
      "occlusionTexture": {
        "index": 19
      },
      "pbrMetallicRoughness": {
        "baseColorTexture": {
          "index": 17
        },
        "metallicRoughnessTexture": {
          "index": 19
        }
      }
    },
    {
      "name": "King_White",
      "normalTexture": {
        "index": 21
      },
      "occlusionTexture": {
        "index": 22
      },
      "pbrMetallicRoughness": {
        "baseColorTexture": {
          "index": 20
        },
        "metallicRoughnessTexture": {
          "index": 22
        }
      }
    },
    {
      "name": "Queen_Black",
      "normalTexture": {
        "index": 24
      },
      "occlusionTexture": {
        "index": 25
      },
      "pbrMetallicRoughness": {
        "baseColorTexture": {
          "index": 23
        },
        "metallicRoughnessTexture": {
          "index": 25
        }
      }
    },
    {
      "name": "Queen_White",
      "normalTexture": {
        "index": 27
      },
      "occlusionTexture": {
        "index": 28
      },
      "pbrMetallicRoughness": {
        "baseColorTexture": {
          "index": 26
        },
        "metallicRoughnessTexture": {
          "index": 28
        }
      }
    },
    {
      "name": "Chessboard",
      "normalTexture": {
        "index": 30
      },
      "occlusionTexture": {
        "index": 31
      },
      "pbrMetallicRoughness": {
        "baseColorTexture": {
          "index": 29
        },
        "metallicRoughnessTexture": {
          "index": 31
        }
      }
    },
    {
      "name": "Pawn_Top_White",
      "normalTexture": {
        "index": 32
      },
      "pbrMetallicRoughness": {
        "baseColorFactor": [
          1.0,
          1.0,
          0.8280000090599061,
          1.0
        ],
        "metallicRoughnessTexture": {
          "index": 33
        }
      },
      "extensions": {
        "KHR_materials_transmission": {
          "transmissionFactor": 1
        },
        "KHR_materials_volume": {
          "attenuationColor": [
            0.800000011920929,
            0.800000011920929,
            0.800000011920929
          ],
          "thicknessFactor": 0.2199999988079071
        }
      }
    },
    {
      "name": "Pawn_Body_White",
      "normalTexture": {
        "index": 35
      },
      "occlusionTexture": {
        "index": 33
      },
      "pbrMetallicRoughness": {
        "baseColorTexture": {
          "index": 34
        },
        "metallicRoughnessTexture": {
          "index": 33
        }
      }
    },
    {
      "name": "Pawn_Top_Black",
      "normalTexture": {
        "index": 36
      },
      "pbrMetallicRoughness": {
        "baseColorFactor": [
          0.2994999885559082,
          0.5,
          0.44999998807907104,
          1.0
        ],
        "metallicRoughnessTexture": {
          "index": 33
        }
      },
      "extensions": {
        "KHR_materials_transmission": {
          "transmissionFactor": 1
        },
        "KHR_materials_volume": {
          "attenuationColor": [
            0.800000011920929,
            0.800000011920929,
            0.800000011920929
          ],
          "thicknessFactor": 0.2199999988079071
        }
      }
    },
    {
      "name": "Pawn_Body_Black",
      "normalTexture": {
        "index": 38
      },
      "occlusionTexture": {
        "index": 33
      },
      "pbrMetallicRoughness": {
        "baseColorTexture": {
          "index": 37
        },
        "metallicRoughnessTexture": {
          "index": 33
        }
      }
    },
    {
      "name": "Castle_Black",
      "normalTexture": {
        "index": 40
      },
      "occlusionTexture": {
        "index": 41
      },
      "pbrMetallicRoughness": {
        "baseColorTexture": {
          "index": 39
        },
        "metallicRoughnessTexture": {
          "index": 41
        }
      }
    },
    {
      "name": "Castle_White",
      "normalTexture": {
        "index": 43
      },
      "occlusionTexture": {
        "index": 41
      },
      "pbrMetallicRoughness": {
        "baseColorTexture": {
          "index": 42
        },
        "metallicRoughnessTexture": {
          "index": 41
        }
      }
    },
    {
      "name": "Knight_Black",
      "normalTexture": {
        "index": 45
      },
      "occlusionTexture": {
        "index": 46
      },
      "pbrMetallicRoughness": {
        "baseColorTexture": {
          "index": 44
        },
        "metallicRoughnessTexture": {
          "index": 46
        }
      }
    },
    {
      "name": "Knight_White",
      "normalTexture": {
        "index": 48
      },
      "occlusionTexture": {
        "index": 46
      },
      "pbrMetallicRoughness": {
        "baseColorTexture": {
          "index": 47
        },
        "metallicRoughnessTexture": {
          "index": 46
        }
      }
    },
    {
      "name": "Bishop_Black",
      "normalTexture": {
        "index": 15
      },
      "occlusionTexture": {
        "index": 16
      },
      "pbrMetallicRoughness": {
        "baseColorTexture": {
          "index": 14
        },
        "metallicRoughnessTexture": {
          "index": 16
        }
      }
    },
    {
      "name": "Bishop_White",
      "normalTexture": {
        "index": 12
      },
      "occlusionTexture": {
        "index": 13
      },
      "pbrMetallicRoughness": {
        "baseColorTexture": {
          "index": 11
        },
        "metallicRoughnessTexture": {
          "index": 13
        }
      }
    }
  ],
  "meshes": [
    {
      "primitives": [
        {
          "attributes": {
            "NORMAL": 1,
            "POSITION": 0,
            "TEXCOORD_0": 2
          },
          "indices": 3,
          "material": 0,
          "mode": 4
        }
      ],
      "name": "Cloth Backdrop"
    },
    {
      "primitives": [
        {
          "attributes": {
            "NORMAL": 5,
            "POSITION": 4,
            "TEXCOORD_0": 6
          },
          "indices": 7,
          "material": 1,
          "mode": 4,
          "extensions": {
            "KHR_materials_variants": {
              "mappings": [
                {
                  "material": 1,
                  "variants": [
                    0
                  ]
                },
                {
                  "material": 2,
                  "variants": [
                    1
                  ]
                }
              ]
            }
          }
        }
      ],
      "name": "Dragon"
    },
    {
      "primitives": [
        {
          "attributes": {
            "NORMAL": 9,
            "POSITION": 8,
            "TEXCOORD_0": 10
          },
          "indices": 11,
          "material": 3,
          "mode": 4
        }
      ],
      "name": "Object_0"
    },
    {
      "primitives": [
        {
          "attributes": {
            "NORMAL": 13,
            "POSITION": 12,
            "TEXCOORD_0": 14
          },
          "indices": 15,
          "material": 4,
          "mode": 4
        }
      ],
      "name": "Object_1"
    },
    {
      "primitives": [
        {
          "attributes": {
            "NORMAL": 17,
            "POSITION": 16,
            "TEXCOORD_0": 18
          },
          "indices": 19,
          "material": 7,
          "mode": 4
        }
      ],
      "name": "Object_2"
    },
    {
      "primitives": [
        {
          "attributes": {
            "NORMAL": 21,
            "POSITION": 20,
            "TEXCOORD_0": 22
          },
          "indices": 23,
          "material": 8,
          "mode": 4
        }
      ],
      "name": "Object_3"
    },
    {
      "primitives": [
        {
          "attributes": {
            "NORMAL": 25,
            "POSITION": 24,
            "TEXCOORD_0": 26
          },
          "indices": 27,
          "material": 9,
          "mode": 4
        }
      ],
      "name": "Object_4"
    },
    {
      "primitives": [
        {
          "attributes": {
            "NORMAL": 29,
            "POSITION": 28,
            "TEXCOORD_0": 30
          },
          "indices": 31,
          "material": 10,
          "mode": 4
        }
      ],
      "name": "Object_5"
    },
    {
      "primitives": [
        {
          "attributes": {
            "NORMAL": 33,
            "POSITION": 32,
            "TEXCOORD_0": 34
          },
          "indices": 35,
          "material": 5,
          "mode": 4
        }
      ],
      "name": "Object_6"
    },
    {
      "primitives": [
        {
          "attributes": {
            "NORMAL": 37,
            "POSITION": 36,
            "TEXCOORD_0": 38
          },
          "indices": 39,
          "material": 6,
          "mode": 4
        }
      ],
      "name": "Object_7"
    },
    {
      "primitives": [
        {
          "attributes": {
            "NORMAL": 43,
            "POSITION": 41,
            "TANGENT": 44,
            "TEXCOORD_0": 42
          },
          "indices": 40,
          "material": 11,
          "mode": 4
        }
      ],
      "name": "King_Shared"
    },
    {
      "primitives": [
        {
          "attributes": {
            "NORMAL": 48,
            "POSITION": 46,
            "TANGENT": 49,
            "TEXCOORD_0": 47
          },
          "indices": 45,
          "material": 12,
          "mode": 4
        }
      ],
      "name": "King_Shared"
    },
    {
      "primitives": [
        {
          "attributes": {
            "NORMAL": 53,
            "POSITION": 51,
            "TANGENT": 54,
            "TEXCOORD_0": 52
          },
          "indices": 50,
          "material": 13,
          "mode": 4
        }
      ],
      "name": "Queen_Shared"
    },
    {
      "primitives": [
        {
          "attributes": {
            "NORMAL": 58,
            "POSITION": 56,
            "TANGENT": 59,
            "TEXCOORD_0": 57
          },
          "indices": 55,
          "material": 14,
          "mode": 4
        }
      ],
      "name": "Queen_Shared"
    },
    {
      "primitives": [
        {
          "attributes": {
            "NORMAL": 63,
            "POSITION": 61,
            "TANGENT": 64,
            "TEXCOORD_0": 62
          },
          "indices": 60,
          "material": 15,
          "mode": 4
        }
      ],
      "name": "Chessboard"
    },
    {
      "primitives": [
        {
          "attributes": {
            "NORMAL": 68,
            "POSITION": 66,
            "TANGENT": 69,
            "TEXCOORD_0": 67
          },
          "indices": 65,
          "material": 16,
          "mode": 4
        }
      ],
      "name": "Pawn_Top_Shared"
    },
    {
      "primitives": [
        {
          "attributes": {
            "NORMAL": 73,
            "POSITION": 71,
            "TANGENT": 74,
            "TEXCOORD_0": 72
          },
          "indices": 70,
          "material": 17,
          "mode": 4
        }
      ],
      "name": "Pawn_Body_Shared"
    },
    {
      "primitives": [
        {
          "attributes": {
            "NORMAL": 78,
            "POSITION": 76,
            "TANGENT": 79,
            "TEXCOORD_0": 77
          },
          "indices": 75,
          "material": 18,
          "mode": 4
        }
      ],
      "name": "Pawn_Top_Shared"
    },
    {
      "primitives": [
        {
          "attributes": {
            "NORMAL": 83,
            "POSITION": 81,
            "TANGENT": 84,
            "TEXCOORD_0": 82
          },
          "indices": 80,
          "material": 19,
          "mode": 4
        }
      ],
      "name": "Pawn_Body_Shared"
    },
    {
      "primitives": [
        {
          "attributes": {
            "NORMAL": 88,
            "POSITION": 86,
            "TANGENT": 89,
            "TEXCOORD_0": 87
          },
          "indices": 85,
          "material": 20,
          "mode": 4
        }
      ],
      "name": "Castle_Shared"
    },
    {
      "primitives": [
        {
          "attributes": {
            "NORMAL": 93,
            "POSITION": 91,
            "TANGENT": 94,
            "TEXCOORD_0": 92
          },
          "indices": 90,
          "material": 21,
          "mode": 4
        }
      ],
      "name": "Castle_Shared"
    },
    {
      "primitives": [
        {
          "attributes": {
            "NORMAL": 98,
            "POSITION": 96,
            "TANGENT": 99,
            "TEXCOORD_0": 97
          },
          "indices": 95,
          "material": 22,
          "mode": 4
        }
      ],
      "name": "Knight_Shared"
    },
    {
      "primitives": [
        {
          "attributes": {
            "NORMAL": 103,
            "POSITION": 101,
            "TANGENT": 104,
            "TEXCOORD_0": 102
          },
          "indices": 100,
          "material": 23,
          "mode": 4
        }
      ],
      "name": "Knight_Shared"
    },
    {
      "primitives": [
        {
          "attributes": {
            "NORMAL": 108,
            "POSITION": 106,
            "TANGENT": 109,
            "TEXCOORD_0": 107
          },
          "indices": 105,
          "material": 24,
          "mode": 4
        }
      ],
      "name": "Bishop_Shared"
    },
    {
      "primitives": [
        {
          "attributes": {
            "NORMAL": 113,
            "POSITION": 111,
            "TANGENT": 114,
            "TEXCOORD_0": 112
          },
          "indices": 110,
          "material": 25,
          "mode": 4
        }
      ],
      "name": "Bishop_Shared"
    }
  ],
  "nodes": [
    {
      "translation": [
        -0.15470129251480105,
        -0.841584324836731,
        -0.1703687310218811
      ],
      "scale": [
        3.5,
        3.5,
        3.5
      ],
      "mesh": 0,
      "name": "Cloth Backdrop"
    },
    {
      "translation": [
        0.0,
        -0.7306479811668396,
        0.0
      ],
      "rotation": [
        0.7071068286895752,
        0.0,
        0.0,
        0.7071068286895752
      ],
      "scale": [
        0.25,
        0.25,
        0.25
      ],
      "mesh": 1,
      "name": "Dragon"
    },
    {
      "name": "Scene",
      "children": [
        0,
        1,
        3
      ]
    },
    {
      "translation": [
        0.07636331021785736,
        1.813307285308838,
        7.401356220245361
      ],
      "rotation": [
        -0.07285137474536896,
        -0.004044173751026392,
        -0.00029541103867813945,
        0.9973345398902893
      ],
      "camera": 0,
      "extras": {
        "camera::center": [
          0.12403595447540283,
          0.9499156475067139,
          1.523172378540039
        ],
        "camera::eye": [
          0.07636331021785736,
          1.813307285308838,
          7.401356220245361
        ],
        "camera::up": [
          0.0,
          1.0,
          0.0
        ]
      },
      "name": "Camera"
    },
    {
      "matrix": [
        1.0,
        0.0,
        0.0,
        0.0,
        0.0,
        2.220446049250313e-16,
        -1.0,
        0.0,
        0.0,
        1.0,
        2.220446049250313e-16,
        0.0,
        0.0,
        0.0,
        0.0,
        1.0
      ],
      "name": "Sketchfab_model",
      "children": [
        5
      ]
    },
    {
      "name": "michael.obj.cleaner.materialmerger.gles",
      "children": [
        6,
        7,
        8,
        9,
        10,
        11,
        12,
        13
      ]
    },
    {
      "mesh": 2,
      "name": "Object_2"
    },
    {
      "mesh": 3,
      "name": "Object_3"
    },
    {
      "mesh": 4,
      "name": "Object_4"
    },
    {
      "mesh": 5,
      "name": "Object_5"
    },
    {
      "mesh": 6,
      "name": "Object_6"
    },
    {
      "mesh": 7,
      "name": "Object_7"
    },
    {
      "mesh": 8,
      "name": "Object_8"
    },
    {
      "mesh": 9,
      "name": "Object_9"
    },
    {
      "translation": [
        -1.628999948501587,
        0.14800000190734863,
        2.0239999294281006
      ],
      "rotation": [
        0.0,
        0.0,
        0.0,
        1.0
      ],
      "scale": [
        1.0,
        1.0,
        1.0
      ],
      "name": "michael",
      "children": [
        4
      ]
    },
    {
      "name": "Scene",
      "children": [
        2,
        14
      ]
    },
    {
      "translation": [
        -0.03142297640442848,
        0.0174538753926754,
        0.22009074687957764
      ],
      "mesh": 10,
      "name": "King_B"
    },
    {
      "translation": [
        -0.03176186978816986,
        0.01745394617319107,
        -0.22027580440044403
      ],
      "mesh": 11,
      "name": "King_W"
    },
    {
      "translation": [
        0.030731208622455597,
        0.01762339472770691,
        0.21983970701694489
      ],
      "mesh": 12,
      "name": "Queen_B"
    },
    {
      "translation": [
        0.03090556710958481,
        0.01686232164502144,
        -0.22027580440044403
      ],
      "mesh": 13,
      "name": "Queen_W"
    },
    {
      "mesh": 14,
      "name": "Chessboard"
    },
    {
      "translation": [
        0.21845926344394684,
        0.014926999807357788,
        -0.15599016845226288
      ],
      "mesh": 16,
      "name": "Pawn_Body_W1",
      "children": [
        22
      ]
    },
    {
      "translation": [
        -0.03125,
        -0.014926999807357788,
        0.03125
      ],
      "mesh": 15,
      "name": "Pawn_Top_W1"
    },
    {
      "translation": [
        0.15633293986320496,
        0.014926999807357788,
        -0.15608981251716614
      ],
      "mesh": 16,
      "name": "Pawn_Body_W2",
      "children": [
        24
      ]
    },
    {
      "translation": [
        -0.03125,
        -0.014926999807357788,
        0.03125
      ],
      "mesh": 15,
      "name": "Pawn_Top_W2"
    },
    {
      "translation": [
        0.09358328580856325,
        0.014926999807357788,
        -0.09414908289909364
      ],
      "mesh": 16,
      "name": "Pawn_Body_W3",
      "children": [
        26
      ]
    },
    {
      "translation": [
        -0.03125,
        -0.014926999807357788,
        0.03125
      ],
      "mesh": 15,
      "name": "Pawn_Top_W3"
    },
    {
      "translation": [
        0.03124999813735485,
        0.014926999807357788,
        -0.03124999813735485
      ],
      "mesh": 16,
      "name": "Pawn_Body_W4",
      "children": [
        28
      ]
    },
    {
      "translation": [
        -0.03124999813735485,
        -0.014926999807357788,
        0.03124999813735485
      ],
      "mesh": 15,
      "name": "Pawn_Top_W4"
    },
    {
      "translation": [
        -0.031169699504971504,
        0.014926999807357788,
        -0.1564261019229889
      ],
      "mesh": 16,
      "name": "Pawn_Body_W5",
      "children": [
        30
      ]
    },
    {
      "translation": [
        -0.03124999813735485,
        -0.014926999807357788,
        0.03125
      ],
      "mesh": 15,
      "name": "Pawn_Top_W5"
    },
    {
      "translation": [
        -0.09379050135612488,
        0.014926999807357788,
        -0.1562434285879135
      ],
      "mesh": 16,
      "name": "Pawn_Body_W6",
      "children": [
        32
      ]
    },
    {
      "translation": [
        -0.03125,
        -0.014926999807357788,
        0.03125
      ],
      "mesh": 15,
      "name": "Pawn_Top_W6"
    },
    {
      "translation": [
        -0.1564229130744934,
        0.014927003532648088,
        -0.1564216911792755
      ],
      "mesh": 16,
      "name": "Pawn_Body_W7",
      "children": [
        34
      ]
    },
    {
      "translation": [
        -0.03125,
        -0.014926999807357788,
        0.03125
      ],
      "mesh": 15,
      "name": "Pawn_Top_W7"
    },
    {
      "translation": [
        -0.21923202276229856,
        0.014927007257938383,
        -0.15629565715789795
      ],
      "mesh": 16,
      "name": "Pawn_Body_W8",
      "children": [
        36
      ]
    },
    {
      "translation": [
        -0.03125,
        -0.014926999807357788,
        0.03125
      ],
      "mesh": 15,
      "name": "Pawn_Top_W8"
    },
    {
      "translation": [
        -0.21923202276229856,
        0.014927007257938383,
        0.15638446807861328
      ],
      "mesh": 18,
      "name": "Pawn_Body_B1",
      "children": [
        38
      ]
    },
    {
      "translation": [
        -0.03125,
        -0.014926999807357788,
        0.03125
      ],
      "mesh": 17,
      "name": "Pawn_Top_B1"
    },
    {
      "translation": [
        -0.15673714876174927,
        0.014927007257938383,
        0.15617261826992035
      ],
      "mesh": 18,
      "name": "Pawn_Body_B2",
      "children": [
        40
      ]
    },
    {
      "translation": [
        -0.03125,
        -0.014926999807357788,
        0.03125
      ],
      "mesh": 17,
      "name": "Pawn_Top_B2"
    },
    {
      "translation": [
        -0.09381857514381409,
        0.014927007257938383,
        0.1562785506248474
      ],
      "mesh": 18,
      "name": "Pawn_Body_B3",
      "children": [
        42
      ]
    },
    {
      "translation": [
        -0.03125,
        -0.014926999807357788,
        0.03125
      ],
      "mesh": 17,
      "name": "Pawn_Top_B3"
    },
    {
      "translation": [
        -0.03132370114326477,
        0.014927007257938383,
        0.09357181191444396
      ],
      "mesh": 18,
      "name": "Pawn_Body_B4",
      "children": [
        44
      ]
    },
    {
      "translation": [
        -0.03125,
        -0.014926999807357788,
        0.03125
      ],
      "mesh": 17,
      "name": "Pawn_Top_B4"
    },
    {
      "translation": [
        0.031245321035385132,
        0.014927007257938383,
        0.15634210407733917
      ],
      "mesh": 18,
      "name": "Pawn_Body_B5",
      "children": [
        46
      ]
    },
    {
      "translation": [
        -0.03124999813735485,
        -0.014926999807357788,
        0.03125
      ],
      "mesh": 17,
      "name": "Pawn_Top_B5"
    },
    {
      "translation": [
        0.09381434321403503,
        0.014927007257938383,
        0.15609847009181976
      ],
      "mesh": 18,
      "name": "Pawn_Body_B6",
      "children": [
        48
      ]
    },
    {
      "translation": [
        -0.03125,
        -0.014926999807357788,
        0.03125
      ],
      "mesh": 17,
      "name": "Pawn_Top_B6"
    },
    {
      "translation": [
        0.15611860156059265,
        0.014927007257938383,
        0.15625736117362976
      ],
      "mesh": 18,
      "name": "Pawn_Body_B7",
      "children": [
        50
      ]
    },
    {
      "translation": [
        -0.03125,
        -0.014926999807357788,
        0.03125
      ],
      "mesh": 17,
      "name": "Pawn_Top_B7"
    },
    {
      "translation": [
        0.21876174211502075,
        0.014927007257938383,
        0.15628913044929504
      ],
      "mesh": 18,
      "name": "Pawn_Body_B8",
      "children": [
        52
      ]
    },
    {
      "translation": [
        -0.03125,
        -0.014926999807357788,
        0.03125
      ],
      "mesh": 17,
      "name": "Pawn_Top_B8"
    },
    {
      "translation": [
        -0.21881157159805295,
        0.01800301857292652,
        0.21959251165390015
      ],
      "mesh": 19,
      "name": "Castle_B1"
    },
    {
      "translation": [
        0.22001203894615173,
        0.01800301857292652,
        0.2196142077445984
      ],
      "mesh": 19,
      "name": "Castle_B2"
    },
    {
      "translation": [
        0.21969175338745117,
        0.016820574179291725,
        -0.21970760822296145
      ],
      "mesh": 20,
      "name": "Castle_W1"
    },
    {
      "translation": [
        -0.21860846877098083,
        0.01710103079676628,
        -0.2200200706720352
      ],
      "mesh": 20,
      "name": "Castle_W2"
    },
    {
      "translation": [
        -0.15675804018974304,
        0.01697981357574463,
        0.22001084685325625
      ],
      "mesh": 21,
      "name": "Knight_B1"
    },
    {
      "translation": [
        0.1584867238998413,
        0.01697981357574463,
        0.2197423279285431
      ],
      "mesh": 21,
      "name": "Knight_B2"
    },
    {
      "translation": [
        0.15809699892997742,
        0.016979999840259552,
        -0.22098299860954285
      ],
      "rotation": [
        0.0,
        -1.0,
        0.0,
        4.3711388286737935e-8
      ],
      "mesh": 22,
      "name": "Knight_W1"
    },
    {
      "translation": [
        -0.15665100514888763,
        0.016979999840259552,
        -0.22008299827575684
      ],
      "rotation": [
        0.0,
        -1.0,
        0.0,
        4.3711388286737935e-8
      ],
      "mesh": 22,
      "name": "Knight_W2"
    },
    {
      "translation": [
        -0.09403245151042938,
        0.01697981357574463,
        0.2190852463245392
      ],
      "mesh": 23,
      "name": "Bishop_B1"
    },
    {
      "translation": [
        0.08951026201248169,
        0.01697981357574463,
        0.2195472866296768
      ],
      "mesh": 23,
      "name": "Bishop_B2"
    },
    {
      "translation": [
        0.090296670794487,
        0.01697981357574463,
        -0.2176361083984375
      ],
      "mesh": 24,
      "name": "Bishop_W1"
    },
    {
      "translation": [
        -0.09416553378105164,
        0.01697981357574463,
        -0.22063007950782776
      ],
      "mesh": 24,
      "name": "Bishop_W2"
    },
    {
      "translation": [
        1.718000054359436,
        -0.6380000114440918,
        2.013000011444092
      ],
      "rotation": [
        0.0,
        0.0,
        0.0,
        1.0
      ],
      "scale": [
        3.0,
        3.0,
        3.0
      ],
      "name": "chessboard",
      "children": [
        16,
        17,
        18,
        19,
        20,
        21,
        23,
        25,
        27,
        29,
        31,
        33,
        35,
        37,
        39,
        41,
        43,
        45,
        47,
        49,
        51,
        53,
        54,
        55,
        56,
        57,
        58,
        59,
        60,
        61,
        62,
        63,
        64
      ]
    },
    {
      "name": "Scene",
      "children": [
        15,
        65
      ]
    }
  ],
  "scene": 0,
  "scenes": [
    {
      "nodes": [
        66
      ],
      "name": "Scene"
    }
  ],
  "textures": [
    {
      "sampler": 0,
      "source": 0
    },
    {
      "sampler": 0,
      "source": 1
    },
    {
      "sampler": 1,
      "source": 2
    },
    {
      "sampler": 1,
      "source": 3
    },
    {
      "sampler": 1,
      "source": 4
    },
    {
      "sampler": 1,
      "source": 5
    },
    {
      "sampler": 1,
      "source": 6
    },
    {
      "sampler": 1,
      "source": 7
    },
    {
      "sampler": 1,
      "source": 8
    },
    {
      "sampler": 1,
      "source": 9
    },
    {
      "sampler": 1,
      "source": 10
    },
    {
      "sampler": 2,
      "source": 11
    },
    {
      "sampler": 2,
      "source": 12
    },
    {
      "sampler": 2,
      "source": 13
    },
    {
      "sampler": 2,
      "source": 14
    },
    {
      "sampler": 2,
      "source": 15
    },
    {
      "sampler": 2,
      "source": 16
    },
    {
      "sampler": 2,
      "source": 17
    },
    {
      "sampler": 2,
      "source": 18
    },
    {
      "sampler": 2,
      "source": 19
    },
    {
      "sampler": 2,
      "source": 20
    },
    {
      "sampler": 2,
      "source": 21
    },
    {
      "sampler": 2,
      "source": 22
    },
    {
      "sampler": 2,
      "source": 23
    },
    {
      "sampler": 2,
      "source": 24
    },
    {
      "sampler": 2,
      "source": 25
    },
    {
      "sampler": 2,
      "source": 26
    },
    {
      "sampler": 2,
      "source": 27
    },
    {
      "sampler": 2,
      "source": 28
    },
    {
      "sampler": 2,
      "source": 29
    },
    {
      "sampler": 2,
      "source": 30
    },
    {
      "sampler": 2,
      "source": 31
    },
    {
      "sampler": 2,
      "source": 32
    },
    {
      "sampler": 2,
      "source": 33
    },
    {
      "sampler": 2,
      "source": 34
    },
    {
      "sampler": 2,
      "source": 32
    },
    {
      "sampler": 2,
      "source": 32
    },
    {
      "sampler": 2,
      "source": 35
    },
    {
      "sampler": 2,
      "source": 32
    },
    {
      "sampler": 2,
      "source": 36
    },
    {
      "sampler": 2,
      "source": 37
    },
    {
      "sampler": 2,
      "source": 38
    },
    {
      "sampler": 2,
      "source": 39
    },
    {
      "sampler": 2,
      "source": 37
    },
    {
      "sampler": 2,
      "source": 40
    },
    {
      "sampler": 2,
      "source": 41
    },
    {
      "sampler": 2,
      "source": 42
    },
    {
      "sampler": 2,
      "source": 43
    },
    {
      "sampler": 2,
      "source": 41
    }
  ],
  "samplers": [
    {
      "magFilter": 9729,
      "minFilter": 9987,
      "wrapS": 10497,
      "wrapT": 10497
    },
    {
      "magFilter": 9729,
      "minFilter": 9987,
      "wrapS": 10497,
      "wrapT": 10497
    },
    {
      "magFilter": 9729,
      "minFilter": 9987,
      "wrapS": 10497,
      "wrapT": 10497
    }
  ],
  "cameras": [
    {
      "type": "perspective",
      "name": "Camera",
      "perspective": {
        "zfar": 49.06022644042969,
        "znear": 0.4906022548675537,
        "aspectRatio": 1.7777777910232544,
        "yfov": 0.7853981852531433
      }
    }
  ],
  "extensions": {
    "KHR_materials_variants": {
      "variants": [
        {
          "name": "Attenuation"
        },
        {
          "name": "Surface Color"
        }
      ]
    }
  },
  "extensionsUsed": [
    "KHR_materials_transmission",
    "KHR_materials_volume",
    "KHR_materials_variants"
  ],
  "buffers": [
    {
      "byteLength": 6398060,
      "uri": "scene1.bin"
    },
    {
      "byteLength": 2547244,
      "uri": "scene10.bin"
    },
    {
      "byteLength": 42945692,
      "uri": "scene11.bin"
    }
  ],
  "images": [
    {
      "mimeType": "image/png",
      "bufferView": 8
    },
    {
      "mimeType": "image/jpeg",
      "bufferView": 9
    },
    {
      "mimeType": "image/png",
      "bufferView": 13
    },
    {
      "mimeType": "image/png",
      "bufferView": 14
    },
    {
      "mimeType": "image/png",
      "bufferView": 15
    },
    {
      "mimeType": "image/png",
      "bufferView": 16
    },
    {
      "mimeType": "image/png",
      "bufferView": 17
    },
    {
      "mimeType": "image/png",
      "bufferView": 18
    },
    {
      "mimeType": "image/png",
      "bufferView": 19
    },
    {
      "mimeType": "image/png",
      "bufferView": 20
    },
    {
      "mimeType": "image/png",
      "bufferView": 21
    },
    {
      "mimeType": "image/jpeg",
      "bufferView": 97
    },
    {
      "mimeType": "image/jpeg",
      "bufferView": 98
    },
    {
      "mimeType": "image/jpeg",
      "bufferView": 99
    },
    {
      "mimeType": "image/jpeg",
      "bufferView": 100
    },
    {
      "mimeType": "image/jpeg",
      "bufferView": 101
    },
    {
      "mimeType": "image/jpeg",
      "bufferView": 102
    },
    {
      "mimeType": "image/jpeg",
      "bufferView": 103
    },
    {
      "mimeType": "image/jpeg",
      "bufferView": 104
    },
    {
      "mimeType": "image/jpeg",
      "bufferView": 105
    },
    {
      "mimeType": "image/jpeg",
      "bufferView": 106
    },
    {
      "mimeType": "image/jpeg",
      "bufferView": 107
    },
    {
      "mimeType": "image/jpeg",
      "bufferView": 108
    },
    {
      "mimeType": "image/jpeg",
      "bufferView": 109
    },
    {
      "mimeType": "image/jpeg",
      "bufferView": 110
    },
    {
      "mimeType": "image/jpeg",
      "bufferView": 111
    },
    {
      "mimeType": "image/jpeg",
      "bufferView": 112
    },
    {
      "mimeType": "image/jpeg",
      "bufferView": 113
    },
    {
      "mimeType": "image/jpeg",
      "bufferView": 114
    },
    {
      "mimeType": "image/jpeg",
      "bufferView": 115
    },
    {
      "mimeType": "image/jpeg",
      "bufferView": 116
    },
    {
      "mimeType": "image/jpeg",
      "bufferView": 117
    },
    {
      "mimeType": "image/jpeg",
      "bufferView": 118
    },
    {
      "mimeType": "image/jpeg",
      "bufferView": 119
    },
    {
      "mimeType": "image/jpeg",
      "bufferView": 120
    },
    {
      "mimeType": "image/jpeg",
      "bufferView": 121
    },
    {
      "mimeType": "image/jpeg",
      "bufferView": 122
    },
    {
      "mimeType": "image/jpeg",
      "bufferView": 123
    },
    {
      "mimeType": "image/jpeg",
      "bufferView": 124
    },
    {
      "mimeType": "image/jpeg",
      "bufferView": 125
    },
    {
      "mimeType": "image/jpeg",
      "bufferView": 126
    },
    {
      "mimeType": "image/jpeg",
      "bufferView": 127
    },
    {
      "mimeType": "image/jpeg",
      "bufferView": 128
    },
    {
      "mimeType": "image/jpeg",
      "bufferView": 129
    }
  ]
}
