{
	"asset":{
		"generator":"Khronos glTF Blender I/O v5.0.21",
		"version":"2.0"
	},
	"scene":0,
	"scenes":[
		{
			"name":"Scene",
			"nodes":[
				0
			]
		}
	],
	"nodes":[
		{
			"mesh":0,
			"name":"Plane"
		}
	],
	"materials":[
		{
			"doubleSided":true,
			"name":"patterned_paving_02",
			"normalTexture":{
				"index":0
			},
			"pbrMetallicRoughness":{
				"baseColorTexture":{
					"index":1
				},
				"metallicFactor":0,
				"metallicRoughnessTexture":{
					"index":2
				}
			},
			"extensions": {
				"KHR_materials_displacement": {
				"displacementGeometryTexture": {
					"index": 3,
					"texCoord": 0
				},
				"displacementGeometryFactor": 0.1,
				"displacementGeometryOffset": 0.0
				}
			}
		}
	],
	"meshes":[
		{
			"name":"Plane",
			"primitives":[
				{
					"attributes":{
						"POSITION":0,
						"NORMAL":1,
						"TEXCOORD_0":2
					},
					"indices":3,
					"material":0
				}
			]
		}
	],
	"textures":[
		{
			"sampler":0,
			"source":0
		},
		{
			"sampler":0,
			"source":1
		},
		{
			"sampler":0,
			"source":2
		},
		{
			"sampler":0,
			"source":3
		}
		
	],
	"images":[
		{
			"mimeType":"image/png",
			"name":"patterned_paving_02_nor_gl",
			"uri":"patterned_paving_02_nor_gl.png"
		},
		{
			"mimeType":"image/jpeg",
			"name":"patterned_paving_02_diff",
			"uri":"patterned_paving_02_diff.jpg"
		},
		{
			"mimeType":"image/png",
			"name":"patterned_paving_02_rough",
			"uri":"patterned_paving_02_rough.png"
		},
		{
			"mimeType":"image/png",
			"name":"patterned_paving_02_disp_512",
			"uri":"patterned_paving_02_disp_512.png"
		}
	],
	"accessors":[
		{
			"bufferView":0,
			"componentType":5126,
			"count":4,
			"max":[
				0.9000000357627869,
				0,
				0.9000000357627869
			],
			"min":[
				-0.9000000357627869,
				0,
				-0.9000000357627869
			],
			"type":"VEC3"
		},
		{
			"bufferView":1,
			"componentType":5126,
			"count":4,
			"type":"VEC3"
		},
		{
			"bufferView":2,
			"componentType":5126,
			"count":4,
			"type":"VEC2"
		},
		{
			"bufferView":3,
			"componentType":5123,
			"count":6,
			"type":"SCALAR"
		}
	],
	"bufferViews":[
		{
			"buffer":0,
			"byteLength":48,
			"byteOffset":0,
			"target":34962
		},
		{
			"buffer":0,
			"byteLength":48,
			"byteOffset":48,
			"target":34962
		},
		{
			"buffer":0,
			"byteLength":32,
			"byteOffset":96,
			"target":34962
		},
		{
			"buffer":0,
			"byteLength":12,
			"byteOffset":128,
			"target":34963
		}
	],
	"samplers":[
		{
			"magFilter":9729,
			"minFilter":9987
		}
	],
	"buffers":[
		{
			"byteLength":140,
			"uri":"patterned_paving_02_1k.bin"
		}
	]
}
