{
  "asset": {
    "version": "2.0",
    "generator": "MatForge 3D Test Generator"
  },
  "extensionsUsed": [
    "KHR_materials_displacement"
  ],
  "scene": 0,
  "scenes": [
    {
      "nodes": [
        0
      ]
    }
  ],
  "nodes": [
    {
      "mesh": 0,
      "name": "Displacedsphere_bump"
    }
  ],
  "meshes": [
    {
      "name": "sphere_bump",
      "primitives": [
        {
          "attributes": {
            "POSITION": 0,
            "NORMAL": 1,
            "TEXCOORD_0": 2
          },
          "indices": 3,
          "material": 0
        }
      ]
    }
  ],
  "materials": [
    {
      "name": "DisplacedMaterial",
      "pbrMetallicRoughness": {
        "baseColorFactor": [
          0.8,
          0.8,
          0.4,
          1.0
        ],
        "metallicFactor": 0.0,
        "roughnessFactor": 0.5
      },
      "extensions": {
        "KHR_materials_displacement": {
          "displacementGeometryTexture": {
            "index": 0,
            "texCoord": 0
          },
          "displacementGeometryFactor": 0.5,
          "displacementGeometryOffset": 0.0
        }
      }
    }
  ],
  "textures": [
    {
      "source": 0
    }
  ],
  "images": [
    {
      "uri": "displacement_bump_256.png",
      "mimeType": "image/png"
    }
  ],
  "accessors": [
    {
      "bufferView": 0,
      "componentType": 5126,
      "count": 1225,
      "type": "VEC3",
      "min": [
        -1.0,
        -1.0,
        -1.0
      ],
      "max": [
        1.0,
        1.0,
        1.0
      ]
    },
    {
      "bufferView": 1,
      "componentType": 5126,
      "count": 1225,
      "type": "VEC3"
    },
    {
      "bufferView": 2,
      "componentType": 5126,
      "count": 1225,
      "type": "VEC2"
    },
    {
      "bufferView": 3,
      "componentType": 5123,
      "count": 6912,
      "type": "SCALAR"
    }
  ],
  "bufferViews": [
    {
      "buffer": 0,
      "byteOffset": 0,
      "byteLength": 14700
    },
    {
      "buffer": 0,
      "byteOffset": 14700,
      "byteLength": 14700
    },
    {
      "buffer": 0,
      "byteOffset": 29400,
      "byteLength": 9800
    },
    {
      "buffer": 0,
      "byteOffset": 39200,
      "byteLength": 13824
    }
  ],
  "buffers": [
    {
      "byteLength": 53024,
      "uri": "data:application/octet-stream;base64,"
    }
  ]
}