{
  "asset": {
    "version": "2.0",
    "generator": "MatForge 3D Test Generator"
  },
  "extensionsUsed": [
    "KHR_materials_displacement"
  ],
  "scene": 0,
  "scenes": [
    {
      "nodes": [
        0
      ]
    }
  ],
  "nodes": [
    {
      "mesh": 0,
      "name": "Displacedsphere"
    }
  ],
  "meshes": [
    {
      "name": "sphere",
      "primitives": [
        {
          "attributes": {
            "POSITION": 0,
            "NORMAL": 1,
            "TEXCOORD_0": 2
          },
          "indices": 3,
          "material": 0
        }
      ]
    }
  ],
  "materials": [
    {
      "name": "DisplacedMaterial",
      "pbrMetallicRoughness": {
        "baseColorFactor": [
          0.4,
          0.6,
          0.8,
          1.0
        ],
        "metallicFactor": 0.0,
        "roughnessFactor": 0.5
      },
      "extensions": {
        "KHR_materials_displacement": {
          "displacementGeometryTexture": {
            "index": 0,
            "texCoord": 0
          },
          "displacementGeometryFactor": 0.3,
          "displacementGeometryOffset": 0.0
        }
      }
    }
  ],
  "textures": [
    {
      "source": 0
    }
  ],
  "images": [
    {
      "uri": "displacement_sphere_256.png",
      "mimeType": "image/png"
    }
  ],
  "accessors": [
    {
      "bufferView": 0,
      "componentType": 5126,
      "count": 561,
      "type": "VEC3",
      "min": [
        -1.0,
        -1.0,
        -1.0
      ],
      "max": [
        1.0,
        1.0,
        1.0
      ]
    },
    {
      "bufferView": 1,
      "componentType": 5126,
      "count": 561,
      "type": "VEC3"
    },
    {
      "bufferView": 2,
      "componentType": 5126,
      "count": 561,
      "type": "VEC2"
    },
    {
      "bufferView": 3,
      "componentType": 5123,
      "count": 3072,
      "type": "SCALAR"
    }
  ],
  "bufferViews": [
    {
      "buffer": 0,
      "byteOffset": 0,
      "byteLength": 6732
    },
    {
      "buffer": 0,
      "byteOffset": 6732,
      "byteLength": 6732
    },
    {
      "buffer": 0,
      "byteOffset": 13464,
      "byteLength": 4488
    },
    {
      "buffer": 0,
      "byteOffset": 17952,
      "byteLength": 6144
    }
  ],
  "buffers": [
    {
      "byteLength": 24096,
      "uri": "data:application/octet-stream;base64,"
    }
  ]
}