{
	"asset":{
		"generator":"Khronos glTF Blender I/O v5.0.21",
		"version":"2.0"
	},
	"extensionsUsed":[
		"KHR_texture_transform"
	],
	"extensionsRequired":[
		"KHR_texture_transform"
	],
	"scene":0,
	"scenes":[
		{
			"name":"Scene",
			"nodes":[
				0
			]
		}
	],
	"nodes":[
		{
			"mesh":0,
			"name":"Circle",
			"translation":[
				-12.311012268066406,
				-0.24802476167678833,
				5.694920539855957
			]
		}
	],
	"materials":[
		{
			"doubleSided":true,
			"name":"patterned_paving_02",
			"normalTexture":{
				"extensions":{
					"KHR_texture_transform":{
						"offset":[
							0,
							0.5
						],
						"scale":[
							0.5,
							0.5
						]
					}
				},
				"index":0
			},
			"pbrMetallicRoughness":{
				"baseColorTexture":{
					"extensions":{
						"KHR_texture_transform":{
							"offset":[
								0,
								0.5
							],
							"scale":[
								0.5,
								0.5
							]
						}
					},
					"index":1
				},
				"metallicFactor":0,
				"metallicRoughnessTexture":{
					"extensions":{
						"KHR_texture_transform":{
							"offset":[
								0,
								0.5
							],
							"scale":[
								0.5,
								0.5
							]
						}
					},
					"index":2
				}
			}
		}
	],
	"meshes":[
		{
			"name":"Circle",
			"primitives":[
				{
					"attributes":{
						"POSITION":0,
						"NORMAL":1,
						"TEXCOORD_0":2
					},
					"indices":3,
					"material":0
				}
			]
		}
	],
	"textures":[
		{
			"sampler":0,
			"source":0
		},
		{
			"sampler":0,
			"source":1
		},
		{
			"sampler":0,
			"source":2
		},
		{
			"sampler":0,
			"source":3
		}
	],
	"images":[
		{
			"mimeType":"image/png",
			"name":"patterned_paving_02_nor_gl",
			"uri":"patterned_paving_02_nor_gl.png"
		},
		{
			"mimeType":"image/jpeg",
			"name":"patterned_paving_02_diff_1k",
			"uri":"patterned_paving_02_diff_1k.jpg"
		},
		{
			"mimeType":"image/png",
			"name":"patterned_paving_02_rough",
			"uri":"patterned_paving_02_rough.png"
		},
		{
			"mimeType":"image/png",
			"name":"patterned_paving_02_disp_128",
			"uri":"patterned_paving_02_disp_128.png"
		}
	],
	"accessors":[
		{
			"bufferView":0,
			"componentType":5126,
			"count":850,
			"max":[
				18.964214324951172,
				0.3167107105255127,
				6.621242523193359
			],
			"min":[
				-18.964214324951172,
				-0.3167107105255127,
				-6.621242523193359
			],
			"type":"VEC3"
		},
		{
			"bufferView":1,
			"componentType":5126,
			"count":850,
			"type":"VEC3"
		},
		{
			"bufferView":2,
			"componentType":5126,
			"count":850,
			"type":"VEC2"
		},
		{
			"bufferView":3,
			"componentType":5123,
			"count":2520,
			"type":"SCALAR"
		}
	],
	"bufferViews":[
		{
			"buffer":0,
			"byteLength":10200,
			"byteOffset":0,
			"target":34962
		},
		{
			"buffer":0,
			"byteLength":10200,
			"byteOffset":10200,
			"target":34962
		},
		{
			"buffer":0,
			"byteLength":6800,
			"byteOffset":20400,
			"target":34962
		},
		{
			"buffer":0,
			"byteLength":5040,
			"byteOffset":27200,
			"target":34963
		}
	],
	"samplers":[
		{
			"magFilter":9729,
			"minFilter":9987
		}
	],
	"buffers":[
		{
			"byteLength":32240,
			"uri":"Site%20File.bin"
		}
	]
}
